<svg id="visual" viewBox="0 0 1920 1080" width="1920" height="1080" xmlns="http://www.w3.org/2000/svg" xmlns:xlink="http://www.w3.org/1999/xlink" version="1.1"><rect x="0" y="0" width="1920" height="1080" fill="#013542"></rect><path d="M0 741L45.7 733.7C91.3 726.3 182.7 711.7 274.2 710.3C365.7 709 457.3 721 548.8 723.3C640.3 725.7 731.7 718.3 823 707C914.3 695.7 1005.7 680.3 1097 678.5C1188.3 676.7 1279.7 688.3 1371.2 701.8C1462.7 715.3 1554.3 730.7 1645.8 748.7C1737.3 766.7 1828.7 787.3 1874.3 797.7L1920 808L1920 1081L1874.3 1081C1828.7 1081 1737.3 1081 1645.8 1081C1554.3 1081 1462.7 1081 1371.2 1081C1279.7 1081 1188.3 1081 1097 1081C1005.7 1081 914.3 1081 823 1081C731.7 1081 640.3 1081 548.8 1081C457.3 1081 365.7 1081 274.2 1081C182.7 1081 91.3 1081 45.7 1081L0 1081Z" fill="#ffe437"></path><path d="M0 761L45.7 755.8C91.3 750.7 182.7 740.3 274.2 743.2C365.7 746 457.3 762 548.8 776.2C640.3 790.3 731.7 802.7 823 797.8C914.3 793 1005.7 771 1097 756C1188.3 741 1279.7 733 1371.2 726.7C1462.7 720.3 1554.3 715.7 1645.8 720C1737.3 724.3 1828.7 737.7 1874.3 744.3L1920 751L1920 1081L1874.3 1081C1828.7 1081 1737.3 1081 1645.8 1081C1554.3 1081 1462.7 1081 1371.2 1081C1279.7 1081 1188.3 1081 1097 1081C1005.7 1081 914.3 1081 823 1081C731.7 1081 640.3 1081 548.8 1081C457.3 1081 365.7 1081 274.2 1081C182.7 1081 91.3 1081 45.7 1081L0 1081Z" fill="#d3c83d"></path><path d="M0 830L45.7 825.3C91.3 820.7 182.7 811.3 274.2 815.3C365.7 819.3 457.3 836.7 548.8 834.3C640.3 832 731.7 810 823 818.2C914.3 826.3 1005.7 864.7 1097 885.2C1188.3 905.7 1279.7 908.3 1371.2 902C1462.7 895.7 1554.3 880.3 1645.8 866.7C1737.3 853 1828.7 841 1874.3 835L1920 829L1920 1081L1874.3 1081C1828.7 1081 1737.3 1081 1645.8 1081C1554.3 1081 1462.7 1081 1371.2 1081C1279.7 1081 1188.3 1081 1097 1081C1005.7 1081 914.3 1081 823 1081C731.7 1081 640.3 1081 548.8 1081C457.3 1081 365.7 1081 274.2 1081C182.7 1081 91.3 1081 45.7 1081L0 1081Z" fill="#abab41"></path><path d="M0 966L45.7 959.3C91.3 952.7 182.7 939.3 274.2 937.8C365.7 936.3 457.3 946.7 548.8 939.3C640.3 932 731.7 907 823 905.5C914.3 904 1005.7 926 1097 941.5C1188.3 957 1279.7 966 1371.2 954.5C1462.7 943 1554.3 911 1645.8 900C1737.3 889 1828.7 899 1874.3 904L1920 909L1920 1081L1874.3 1081C1828.7 1081 1737.3 1081 1645.8 1081C1554.3 1081 1462.7 1081 1371.2 1081C1279.7 1081 1188.3 1081 1097 1081C1005.7 1081 914.3 1081 823 1081C731.7 1081 640.3 1081 548.8 1081C457.3 1081 365.7 1081 274.2 1081C182.7 1081 91.3 1081 45.7 1081L0 1081Z" fill="#888e42"></path><path d="M0 956L45.7 965.3C91.3 974.7 182.7 993.3 274.2 1001.2C365.7 1009 457.3 1006 548.8 998.3C640.3 990.7 731.7 978.3 823 977.5C914.3 976.7 1005.7 987.3 1097 997.2C1188.3 1007 1279.7 1016 1371.2 1020.5C1462.7 1025 1554.3 1025 1645.8 1022.3C1737.3 1019.7 1828.7 1014.3 1874.3 1011.7L1920 1009L1920 1081L1874.3 1081C1828.7 1081 1737.3 1081 1645.8 1081C1554.3 1081 1462.7 1081 1371.2 1081C1279.7 1081 1188.3 1081 1097 1081C1005.7 1081 914.3 1081 823 1081C731.7 1081 640.3 1081 548.8 1081C457.3 1081 365.7 1081 274.2 1081C182.7 1081 91.3 1081 45.7 1081L0 1081Z" fill="#697140"></path></svg>