<svg id="visual" viewBox="0 0 1920 1080" width="1920" height="1080" xmlns="http://www.w3.org/2000/svg" xmlns:xlink="http://www.w3.org/1999/xlink" version="1.1"><rect width="1920" height="1080" fill="#FFE437"></rect><g><g transform="translate(1072 585)"><path d="M15.3 0.2C15.3 8.5 7.7 16.9 -0.2 16.9C-8.1 16.9 -16.1 8.5 -16.1 0.2C-16.1 -8.2 -8.1 -16.3 -0.2 -16.3C7.7 -16.3 15.3 -8.2 15.3 0.2Z" fill="#fff5b2"></path></g><g transform="translate(1908 560)"><path d="M5.7 -0.1C5.7 2.7 2.8 5.4 0.1 5.4C-2.7 5.4 -5.3 2.7 -5.3 -0.1C-5.3 -2.9 -2.7 -5.8 0.1 -5.8C2.8 -5.8 5.7 -2.9 5.7 -0.1Z" fill="#fff5b2"></path></g><g transform="translate(1693 851)"><path d="M14.3 0.1C14.3 7.3 7.2 14.6 -0.3 14.6C-7.8 14.6 -15.6 7.3 -15.6 0.1C-15.6 -7.1 -7.8 -14.2 -0.3 -14.2C7.2 -14.2 14.3 -7.1 14.3 0.1Z" fill="#fff5b2"></path></g><g transform="translate(600 513)"><path d="M3.7 0C3.7 1.9 1.9 3.8 0 3.8C-1.8 3.8 -3.6 1.9 -3.6 0C-3.6 -1.9 -1.8 -3.8 0 -3.8C1.9 -3.8 3.7 -1.9 3.7 0Z" fill="#fff5b2"></path></g><g transform="translate(1068 210)"><path d="M15.8 0.3C15.8 8 7.9 16 0.1 16C-7.8 16 -15.6 8 -15.6 0.3C-15.6 -7.3 -7.8 -14.7 0.1 -14.7C7.9 -14.7 15.8 -7.3 15.8 0.3Z" fill="#fff5b2"></path></g><g transform="translate(1226 1065)"><path d="M7.7 0.1C7.7 4 3.9 8 0 8C-3.8 8 -7.5 4 -7.5 0.1C-7.5 -3.9 -3.8 -7.7 0 -7.7C3.9 -7.7 7.7 -3.9 7.7 0.1Z" fill="#fff5b2"></path></g><g transform="translate(400 501)"><path d="M3.8 0C3.8 1.9 1.9 3.8 0 3.8C-1.9 3.8 -3.7 1.9 -3.7 0C-3.7 -2 -1.9 -3.9 0 -3.9C1.9 -3.9 3.8 -2 3.8 0Z" fill="#fff5b2"></path></g><g transform="translate(93 964)"><path d="M2.7 0.1C2.7 1.3 1.3 2.6 0 2.6C-1.3 2.6 -2.6 1.3 -2.6 0.1C-2.6 -1.2 -1.3 -2.3 0 -2.3C1.3 -2.3 2.7 -1.2 2.7 0.1Z" fill="#fff5b2"></path></g><g transform="translate(1909 966)"><path d="M1.9 0C1.9 0.9 0.9 1.9 0 1.9C-0.9 1.9 -1.9 0.9 -1.9 0C-1.9 -0.9 -0.9 -1.9 0 -1.9C0.9 -1.9 1.9 -0.9 1.9 0Z" fill="#fff5b2"></path></g><g transform="translate(1045 340)"><path d="M5.8 0.1C5.8 2.8 2.9 5.7 0 5.7C-3 5.7 -6 2.8 -6 0.1C-6 -2.7 -3 -5.5 0 -5.5C2.9 -5.5 5.8 -2.7 5.8 0.1Z" fill="#fff5b2"></path></g><g transform="translate(213 994)"><path d="M12 0.3C12 6 6 11.9 0.1 11.9C-5.8 11.9 -11.5 6 -11.5 0.3C-11.5 -5.4 -5.8 -10.8 0.1 -10.8C6 -10.8 12 -5.4 12 0.3Z" fill="#fff5b2"></path></g><g transform="translate(1902 223)"><path d="M11.1 0C11.1 5.9 5.6 11.7 -0.3 11.7C-6.2 11.7 -12.4 5.9 -12.4 0C-12.4 -5.9 -6.2 -11.9 -0.3 -11.9C5.6 -11.9 11.1 -5.9 11.1 0Z" fill="#fff5b2"></path></g><g transform="translate(1194 236)"><path d="M3.7 0C3.7 1.8 1.8 3.6 0 3.6C-1.9 3.6 -3.8 1.8 -3.8 0C-3.8 -1.8 -1.9 -3.6 0 -3.6C1.8 -3.6 3.7 -1.8 3.7 0Z" fill="#fff5b2"></path></g><g transform="translate(1509 64)"><path d="M7.5 0C7.5 3.9 3.8 7.8 0 7.8C-3.8 7.8 -7.6 3.9 -7.6 0C-7.6 -3.9 -3.8 -7.8 0 -7.8C3.8 -7.8 7.5 -3.9 7.5 0Z" fill="#fff5b2"></path></g><g transform="translate(1759 1068)"><path d="M5.3 -0.1C5.3 2.9 2.7 5.8 -0.1 5.8C-2.8 5.8 -5.6 2.9 -5.6 -0.1C-5.6 -3 -2.8 -6 -0.1 -6C2.7 -6 5.3 -3 5.3 -0.1Z" fill="#fff5b2"></path></g><g transform="translate(743 731)"><path d="M14.2 0C14.2 7.4 7.1 14.7 -0.2 14.7C-7.6 14.7 -15.1 7.4 -15.1 0C-15.1 -7.3 -7.6 -14.7 -0.2 -14.7C7.1 -14.7 14.2 -7.3 14.2 0Z" fill="#fff5b2"></path></g><g transform="translate(1863 527)"><path d="M8.1 -0.2C8.1 3.9 4 7.8 -0.1 7.8C-4.2 7.8 -8.5 3.9 -8.5 -0.2C-8.5 -4.3 -4.2 -8.6 -0.1 -8.6C4 -8.6 8.1 -4.3 8.1 -0.2Z" fill="#fff5b2"></path></g><g transform="translate(713 366)"><path d="M9.1 0.2C9.1 4.6 4.5 9.2 0 9.2C-4.5 9.2 -8.9 4.6 -8.9 0.2C-8.9 -4.2 -4.5 -8.3 0 -8.3C4.5 -8.3 9.1 -4.2 9.1 0.2Z" fill="#fff5b2"></path></g><g transform="translate(1146 325)"><path d="M8.8 0C8.8 4.7 4.4 9.4 -0.3 9.4C-5 9.4 -9.9 4.7 -9.9 0C-9.9 -4.7 -5 -9.5 -0.3 -9.5C4.4 -9.5 8.8 -4.7 8.8 0Z" fill="#fff5b2"></path></g><g transform="translate(1139 800)"><path d="M4.6 0C4.6 2.3 2.3 4.6 0.1 4.6C-2.1 4.6 -4.1 2.3 -4.1 0C-4.1 -2.2 -2.1 -4.5 0.1 -4.5C2.3 -4.5 4.6 -2.2 4.6 0Z" fill="#fff5b2"></path></g><g transform="translate(1080 973)"><path d="M13.3 0.2C13.3 6.6 6.6 13.2 0 13.2C-6.6 13.2 -13.3 6.6 -13.3 0.2C-13.3 -6.3 -6.6 -12.5 0 -12.5C6.6 -12.5 13.3 -6.3 13.3 0.2Z" fill="#fff5b2"></path></g><g transform="translate(1894 879)"><path d="M9.7 -0.1C9.7 5 4.8 9.9 -0.2 9.9C-5.3 9.9 -10.6 5 -10.6 -0.1C-10.6 -5.2 -5.3 -10.5 -0.2 -10.5C4.8 -10.5 9.7 -5.2 9.7 -0.1Z" fill="#fff5b2"></path></g><g transform="translate(739 842)"><path d="M3 0C3 1.5 1.5 3 0 3C-1.6 3 -3.2 1.5 -3.2 0C-3.2 -1.5 -1.6 -2.9 0 -2.9C1.5 -2.9 3 -1.5 3 0Z" fill="#fff5b2"></path></g><g transform="translate(234 26)"><path d="M13.4 -0.3C13.4 6.5 6.7 13 0.1 13C-6.5 13 -13 6.5 -13 -0.3C-13 -7.1 -6.5 -14.2 0.1 -14.2C6.7 -14.2 13.4 -7.1 13.4 -0.3Z" fill="#fff5b2"></path></g><g transform="translate(966 412)"><path d="M14.4 0.1C14.4 7 7.2 14 0.2 14C-6.9 14 -13.8 7 -13.8 0.1C-13.8 -6.8 -6.9 -13.5 0.2 -13.5C7.2 -13.5 14.4 -6.8 14.4 0.1Z" fill="#fff5b2"></path></g><g transform="translate(866 928)"><path d="M7.6 0.2C7.6 4.3 3.8 8.5 0 8.5C-3.8 8.5 -7.7 4.3 -7.7 0.2C-7.7 -3.9 -3.8 -7.8 0 -7.8C3.8 -7.8 7.6 -3.9 7.6 0.2Z" fill="#fff5b2"></path></g><g transform="translate(1653 107)"><path d="M4.7 0C4.7 2.2 2.3 4.3 0.1 4.3C-2.1 4.3 -4.1 2.2 -4.1 0C-4.1 -2.1 -2.1 -4.3 0.1 -4.3C2.3 -4.3 4.7 -2.1 4.7 0Z" fill="#fff5b2"></path></g><g transform="translate(1777 732)"><path d="M7 0C7 3.9 3.5 7.7 0 7.7C-3.6 7.7 -7.2 3.9 -7.2 0C-7.2 -3.8 -3.6 -7.6 0 -7.6C3.5 -7.6 7 -3.8 7 0Z" fill="#fff5b2"></path></g><g transform="translate(1566 1072)"><path d="M7.5 0.1C7.5 3.7 3.7 7.4 0 7.4C-3.7 7.4 -7.5 3.7 -7.5 0.1C-7.5 -3.5 -3.7 -7 0 -7C3.7 -7 7.5 -3.5 7.5 0.1Z" fill="#fff5b2"></path></g><g transform="translate(1818 671)"><path d="M13.9 -0.1C13.9 6.9 7 13.7 0.2 13.7C-6.5 13.7 -13 6.9 -13 -0.1C-13 -7.1 -6.5 -14.2 0.2 -14.2C7 -14.2 13.9 -7.1 13.9 -0.1Z" fill="#fff5b2"></path></g><g transform="translate(211 305)"><path d="M14.5 0.2C14.5 7.6 7.2 15.3 -0.1 15.3C-7.4 15.3 -14.9 7.6 -14.9 0.2C-14.9 -7.2 -7.4 -14.4 -0.1 -14.4C7.2 -14.4 14.5 -7.2 14.5 0.2Z" fill="#fff5b2"></path></g><g transform="translate(566 605)"><path d="M13 0C13 6.1 6.5 12.1 0.3 12.1C-5.9 12.1 -11.8 6.1 -11.8 0C-11.8 -6.1 -5.9 -12.1 0.3 -12.1C6.5 -12.1 13 -6.1 13 0Z" fill="#fff5b2"></path></g><g transform="translate(146 439)"><path d="M7.1 -0.1C7.1 3.4 3.6 6.8 0 6.8C-3.5 6.8 -6.9 3.4 -6.9 -0.1C-6.9 -3.6 -3.5 -7.3 0 -7.3C3.6 -7.3 7.1 -3.6 7.1 -0.1Z" fill="#fff5b2"></path></g><g transform="translate(946 306)"><path d="M10 -0.1C10 4.7 5 9.4 0.3 9.4C-4.4 9.4 -8.8 4.7 -8.8 -0.1C-8.8 -4.9 -4.4 -9.9 0.3 -9.9C5 -9.9 10 -4.9 10 -0.1Z" fill="#fff5b2"></path></g><g transform="translate(1425 708)"><path d="M15.1 0.4C15.1 7.9 7.5 15.8 -0.2 15.8C-8 15.8 -15.9 7.9 -15.9 0.4C-15.9 -7.1 -8 -14.2 -0.2 -14.2C7.5 -14.2 15.1 -7.1 15.1 0.4Z" fill="#fff5b2"></path></g><g transform="translate(1762 136)"><path d="M11.1 -0.1C11.1 5.3 5.5 10.5 0.2 10.5C-5.1 10.5 -10.1 5.3 -10.1 -0.1C-10.1 -5.5 -5.1 -11 0.2 -11C5.5 -11 11.1 -5.5 11.1 -0.1Z" fill="#fff5b2"></path></g><g transform="translate(1904 474)"><path d="M11.8 -0.3C11.8 5.6 5.9 11.2 0 11.2C-5.8 11.2 -11.7 5.6 -11.7 -0.3C-11.7 -6.1 -5.8 -12.3 0 -12.3C5.9 -12.3 11.8 -6.1 11.8 -0.3Z" fill="#fff5b2"></path></g><g transform="translate(627 728)"><path d="M10.4 0C10.4 5.3 5.2 10.5 0 10.5C-5.3 10.5 -10.5 5.3 -10.5 0C-10.5 -5.3 -5.3 -10.6 0 -10.6C5.2 -10.6 10.4 -5.3 10.4 0Z" fill="#fff5b2"></path></g><g transform="translate(1173 954)"><path d="M4.4 0C4.4 2.2 2.2 4.5 0 4.5C-2.1 4.5 -4.2 2.2 -4.2 0C-4.2 -2.3 -2.1 -4.6 0 -4.6C2.2 -4.6 4.4 -2.3 4.4 0Z" fill="#fff5b2"></path></g><g transform="translate(223 109)"><path d="M5 -0.1C5 2.4 2.5 4.7 0 4.7C-2.5 4.7 -5 2.4 -5 -0.1C-5 -2.5 -2.5 -5 0 -5C2.5 -5 5 -2.5 5 -0.1Z" fill="#fff5b2"></path></g><g transform="translate(198 684)"><path d="M11.4 0.2C11.4 5.7 5.7 11.4 -0.1 11.4C-5.8 11.4 -11.6 5.7 -11.6 0.2C-11.6 -5.4 -5.8 -10.7 -0.1 -10.7C5.7 -10.7 11.4 -5.4 11.4 0.2Z" fill="#fff5b2"></path></g><g transform="translate(708 941)"><path d="M8.3 0.1C8.3 4.5 4.1 9 -0.2 9C-4.6 9 -9.2 4.5 -9.2 0.1C-9.2 -4.4 -4.6 -8.7 -0.2 -8.7C4.1 -8.7 8.3 -4.4 8.3 0.1Z" fill="#fff5b2"></path></g><g transform="translate(395 341)"><path d="M14.2 0C14.2 6.9 7.1 13.8 0 13.8C-7 13.8 -14.1 6.9 -14.1 0C-14.1 -6.8 -7 -13.7 0 -13.7C7.1 -13.7 14.2 -6.8 14.2 0Z" fill="#fff5b2"></path></g><g transform="translate(294 130)"><path d="M5.2 0.1C5.2 2.6 2.6 5.1 0.1 5.1C-2.4 5.1 -4.9 2.6 -4.9 0.1C-4.9 -2.4 -2.4 -4.8 0.1 -4.8C2.6 -4.8 5.2 -2.4 5.2 0.1Z" fill="#fff5b2"></path></g><g transform="translate(123 301)"><path d="M1.9 0C1.9 1 1 1.9 0 1.9C-0.9 1.9 -1.9 1 -1.9 0C-1.9 -0.9 -0.9 -1.8 0 -1.8C1 -1.8 1.9 -0.9 1.9 0Z" fill="#fff5b2"></path></g><g transform="translate(1668 189)"><path d="M7.6 0C7.6 3.6 3.8 7.3 0 7.3C-3.9 7.3 -7.8 3.6 -7.8 0C-7.8 -3.6 -3.9 -7.1 0 -7.1C3.8 -7.1 7.6 -3.6 7.6 0Z" fill="#fff5b2"></path></g><g transform="translate(525 416)"><path d="M5.4 0C5.4 2.8 2.7 5.6 -0.1 5.6C-2.8 5.6 -5.7 2.8 -5.7 0C-5.7 -2.8 -2.8 -5.6 -0.1 -5.6C2.7 -5.6 5.4 -2.8 5.4 0Z" fill="#fff5b2"></path></g><g transform="translate(674 95)"><path d="M1.9 0C1.9 0.9 1 1.8 0 1.8C-1 1.8 -2 0.9 -2 0C-2 -0.9 -1 -1.9 0 -1.9C1 -1.9 1.9 -0.9 1.9 0Z" fill="#fff5b2"></path></g><g transform="translate(120 200)"><path d="M4.7 0C4.7 2.6 2.4 5.1 0 5.1C-2.4 5.1 -4.8 2.6 -4.8 0C-4.8 -2.7 -2.4 -5.3 0 -5.3C2.4 -5.3 4.7 -2.7 4.7 0Z" fill="#fff5b2"></path></g><g transform="translate(47 199)"><path d="M11.3 0.2C11.3 5.5 5.6 10.9 0 10.9C-5.6 10.9 -11.3 5.5 -11.3 0.2C-11.3 -5 -5.6 -10 0 -10C5.6 -10 11.3 -5 11.3 0.2Z" fill="#fff5b2"></path></g><g transform="translate(192 160)"><path d="M12.6 -0.2C12.6 5.8 6.3 11.6 0.3 11.6C-5.7 11.6 -11.5 5.8 -11.5 -0.2C-11.5 -6.2 -5.7 -12.4 0.3 -12.4C6.3 -12.4 12.6 -6.2 12.6 -0.2Z" fill="#fff5b2"></path></g><g transform="translate(209 472)"><path d="M2.5 0C2.5 1.3 1.3 2.6 0 2.6C-1.3 2.6 -2.7 1.3 -2.7 0C-2.7 -1.3 -1.3 -2.6 0 -2.6C1.3 -2.6 2.5 -1.3 2.5 0Z" fill="#fff5b2"></path></g><g transform="translate(1120 726)"><path d="M12.4 0C12.4 5.8 6.2 11.6 0.2 11.6C-5.7 11.6 -11.5 5.8 -11.5 0C-11.5 -5.9 -5.7 -11.7 0.2 -11.7C6.2 -11.7 12.4 -5.9 12.4 0Z" fill="#fff5b2"></path></g><g transform="translate(577 1036)"><path d="M14.2 0.2C14.2 7.5 7.1 15.1 0 15.1C-7.1 15.1 -14.2 7.5 -14.2 0.2C-14.2 -7.2 -7.1 -14.5 0 -14.5C7.1 -14.5 14.2 -7.2 14.2 0.2Z" fill="#fff5b2"></path></g><g transform="translate(985 714)"><path d="M3 0C3 1.6 1.5 3.3 -0.1 3.3C-1.6 3.3 -3.3 1.6 -3.3 0C-3.3 -1.6 -1.6 -3.1 -0.1 -3.1C1.5 -3.1 3 -1.6 3 0Z" fill="#fff5b2"></path></g><g transform="translate(1497 3)"><path d="M13.1 0.3C13.1 6.8 6.5 13.5 -0.1 13.5C-6.8 13.5 -13.5 6.8 -13.5 0.3C-13.5 -6.2 -6.8 -12.3 -0.1 -12.3C6.5 -12.3 13.1 -6.2 13.1 0.3Z" fill="#fff5b2"></path></g><g transform="translate(1740 953)"><path d="M11.5 -0.2C11.5 5.9 5.8 11.8 0.1 11.8C-5.6 11.8 -11.2 5.9 -11.2 -0.2C-11.2 -6.3 -5.6 -12.6 0.1 -12.6C5.8 -12.6 11.5 -6.3 11.5 -0.2Z" fill="#fff5b2"></path></g><g transform="translate(1400 413)"><path d="M12.2 -0.2C12.2 5.6 6.1 11.1 0.1 11.1C-6 11.1 -11.9 5.6 -11.9 -0.2C-11.9 -6 -6 -12 0.1 -12C6.1 -12 12.2 -6 12.2 -0.2Z" fill="#fff5b2"></path></g><g transform="translate(910 398)"><path d="M6.1 0.2C6.1 3.3 3.1 6.6 -0.1 6.6C-3.2 6.6 -6.4 3.3 -6.4 0.2C-6.4 -3 -3.2 -5.9 -0.1 -5.9C3.1 -5.9 6.1 -3 6.1 0.2Z" fill="#fff5b2"></path></g><g transform="translate(204 557)"><path d="M12.2 0.1C12.2 6.3 6.1 12.7 -0.1 12.7C-6.3 12.7 -12.5 6.3 -12.5 0.1C-12.5 -6.2 -6.3 -12.5 -0.1 -12.5C6.1 -12.5 12.2 -6.2 12.2 0.1Z" fill="#fff5b2"></path></g><g transform="translate(1351 1067)"><path d="M10 0.1C10 4.6 5 9.2 0.1 9.2C-4.8 9.2 -9.6 4.6 -9.6 0.1C-9.6 -4.4 -4.8 -8.8 0.1 -8.8C5 -8.8 10 -4.4 10 0.1Z" fill="#fff5b2"></path></g><g transform="translate(1720 177)"><path d="M7.3 -0.1C7.3 3.4 3.7 6.7 0.1 6.7C-3.5 6.7 -6.9 3.4 -6.9 -0.1C-6.9 -3.5 -3.5 -7 0.1 -7C3.7 -7 7.3 -3.5 7.3 -0.1Z" fill="#fff5b2"></path></g><g transform="translate(1481 950)"><path d="M8.4 0.2C8.4 4.2 4.2 8.4 0 8.4C-4.3 8.4 -8.6 4.2 -8.6 0.2C-8.6 -3.9 -4.3 -7.8 0 -7.8C4.2 -7.8 8.4 -3.9 8.4 0.2Z" fill="#fff5b2"></path></g><g transform="translate(1329 247)"><path d="M4.2 -0.1C4.2 2.1 2.1 4.2 -0.1 4.2C-2.2 4.2 -4.4 2.1 -4.4 -0.1C-4.4 -2.3 -2.2 -4.6 -0.1 -4.6C2.1 -4.6 4.2 -2.3 4.2 -0.1Z" fill="#fff5b2"></path></g><g transform="translate(1758 670)"><path d="M13.7 0.1C13.7 6.9 6.9 13.9 0 13.9C-6.8 13.9 -13.6 6.9 -13.6 0.1C-13.6 -6.7 -6.8 -13.5 0 -13.5C6.9 -13.5 13.7 -6.7 13.7 0.1Z" fill="#fff5b2"></path></g><g transform="translate(63 1051)"><path d="M11.3 0.2C11.3 5.6 5.6 11.2 0.2 11.2C-5.2 11.2 -10.5 5.6 -10.5 0.2C-10.5 -5.2 -5.2 -10.5 0.2 -10.5C5.6 -10.5 11.3 -5.2 11.3 0.2Z" fill="#fff5b2"></path></g><g transform="translate(1021 920)"><path d="M5.5 -0.1C5.5 2.7 2.7 5.5 -0.1 5.5C-2.9 5.5 -5.8 2.7 -5.8 -0.1C-5.8 -2.9 -2.9 -5.8 -0.1 -5.8C2.7 -5.8 5.5 -2.9 5.5 -0.1Z" fill="#fff5b2"></path></g><g transform="translate(695 508)"><path d="M4 0C4 1.9 2 3.7 0.1 3.7C-1.8 3.7 -3.6 1.9 -3.6 0C-3.6 -1.8 -1.8 -3.6 0.1 -3.6C2 -3.6 4 -1.8 4 0Z" fill="#fff5b2"></path></g><g transform="translate(578 657)"><path d="M13.8 -0.1C13.8 7.1 6.9 14.1 -0.2 14.1C-7.2 14.1 -14.5 7.1 -14.5 -0.1C-14.5 -7.3 -7.2 -14.5 -0.2 -14.5C6.9 -14.5 13.8 -7.3 13.8 -0.1Z" fill="#fff5b2"></path></g><g transform="translate(360 163)"><path d="M12.4 0.2C12.4 6.8 6.2 13.7 -0.4 13.7C-6.9 13.7 -13.8 6.8 -13.8 0.2C-13.8 -6.5 -6.9 -13 -0.4 -13C6.2 -13 12.4 -6.5 12.4 0.2Z" fill="#fff5b2"></path></g><g transform="translate(153 920)"><path d="M2.6 0C2.6 1.3 1.3 2.6 0 2.6C-1.3 2.6 -2.7 1.3 -2.7 0C-2.7 -1.3 -1.3 -2.6 0 -2.6C1.3 -2.6 2.6 -1.3 2.6 0Z" fill="#fff5b2"></path></g><g transform="translate(1054 446)"><path d="M7 0.1C7 3.9 3.5 7.7 0 7.7C-3.5 7.7 -7.1 3.9 -7.1 0.1C-7.1 -3.6 -3.5 -7.2 0 -7.2C3.5 -7.2 7 -3.6 7 0.1Z" fill="#fff5b2"></path></g><g transform="translate(1272 873)"><path d="M14.5 0.3C14.5 7.3 7.3 14.5 0.1 14.5C-7 14.5 -14.1 7.3 -14.1 0.3C-14.1 -6.7 -7 -13.3 0.1 -13.3C7.3 -13.3 14.5 -6.7 14.5 0.3Z" fill="#fff5b2"></path></g><g transform="translate(1225 587)"><path d="M2.6 0.1C2.6 1.3 1.3 2.6 0 2.6C-1.3 2.6 -2.5 1.3 -2.5 0.1C-2.5 -1.2 -1.3 -2.4 0 -2.4C1.3 -2.4 2.6 -1.2 2.6 0.1Z" fill="#fff5b2"></path></g><g transform="translate(586 416)"><path d="M3.2 -0.1C3.2 1.5 1.6 3 0 3C-1.6 3 -3.2 1.5 -3.2 -0.1C-3.2 -1.7 -1.6 -3.3 0 -3.3C1.6 -3.3 3.2 -1.7 3.2 -0.1Z" fill="#fff5b2"></path></g><g transform="translate(14 576)"><path d="M15.2 -0.2C15.2 7.1 7.6 14.2 0.1 14.2C-7.5 14.2 -15 7.1 -15 -0.2C-15 -7.4 -7.5 -14.9 0.1 -14.9C7.6 -14.9 15.2 -7.4 15.2 -0.2Z" fill="#fff5b2"></path></g><g transform="translate(1048 1030)"><path d="M7.3 -0.1C7.3 3.4 3.7 6.7 0 6.7C-3.6 6.7 -7.3 3.4 -7.3 -0.1C-7.3 -3.6 -3.6 -7.2 0 -7.2C3.7 -7.2 7.3 -3.6 7.3 -0.1Z" fill="#fff5b2"></path></g><g transform="translate(1619 516)"><path d="M5.7 0C5.7 2.8 2.9 5.5 0 5.5C-3 5.5 -5.9 2.8 -5.9 0C-5.9 -2.7 -3 -5.4 0 -5.4C2.9 -5.4 5.7 -2.7 5.7 0Z" fill="#fff5b2"></path></g><g transform="translate(307 35)"><path d="M4.5 0C4.5 2.2 2.2 4.5 0 4.5C-2.2 4.5 -4.4 2.2 -4.4 0C-4.4 -2.3 -2.2 -4.5 0 -4.5C2.2 -4.5 4.5 -2.3 4.5 0Z" fill="#fff5b2"></path></g><g transform="translate(1168 852)"><path d="M1.9 0C1.9 1 1 2 0 2C-1 2 -1.9 1 -1.9 0C-1.9 -0.9 -1 -1.8 0 -1.8C1 -1.8 1.9 -0.9 1.9 0Z" fill="#fff5b2"></path></g><g transform="translate(1336 946)"><path d="M15.6 -0.2C15.6 7.5 7.8 15 0.1 15C-7.6 15 -15.3 7.5 -15.3 -0.2C-15.3 -7.8 -7.6 -15.6 0.1 -15.6C7.8 -15.6 15.6 -7.8 15.6 -0.2Z" fill="#fff5b2"></path></g><g transform="translate(1006 990)"><path d="M7.8 -0.2C7.8 3.5 3.9 7 0 7C-4 7 -8 3.5 -8 -0.2C-8 -3.8 -4 -7.6 0 -7.6C3.9 -7.6 7.8 -3.8 7.8 -0.2Z" fill="#fff5b2"></path></g><g transform="translate(405 216)"><path d="M14.2 0.1C14.2 6.7 7.1 13.4 0 13.4C-7 13.4 -14 6.7 -14 0.1C-14 -6.5 -7 -13.1 0 -13.1C7.1 -13.1 14.2 -6.5 14.2 0.1Z" fill="#fff5b2"></path></g><g transform="translate(886 73)"><path d="M12.7 -0.2C12.7 6.2 6.4 12.4 0 12.4C-6.5 12.4 -12.9 6.2 -12.9 -0.2C-12.9 -6.6 -6.5 -13.2 0 -13.2C6.4 -13.2 12.7 -6.6 12.7 -0.2Z" fill="#fff5b2"></path></g><g transform="translate(1091 156)"><path d="M8.8 -0.2C8.8 4.4 4.4 8.8 -0.2 8.8C-4.8 8.8 -9.5 4.4 -9.5 -0.2C-9.5 -4.8 -4.8 -9.5 -0.2 -9.5C4.4 -9.5 8.8 -4.8 8.8 -0.2Z" fill="#fff5b2"></path></g><g transform="translate(281 676)"><path d="M8 0C8 4 4 7.9 -0.2 7.9C-4.3 7.9 -8.6 4 -8.6 0C-8.6 -4 -4.3 -8 -0.2 -8C4 -8 8 -4 8 0Z" fill="#fff5b2"></path></g><g transform="translate(484 229)"><path d="M14.5 0C14.5 7.5 7.3 15 0 15C-7.2 15 -14.4 7.5 -14.4 0C-14.4 -7.4 -7.2 -14.8 0 -14.8C7.3 -14.8 14.5 -7.4 14.5 0Z" fill="#fff5b2"></path></g><g transform="translate(1521 1013)"><path d="M14.4 0C14.4 7.3 7.2 14.7 0.2 14.7C-6.9 14.7 -13.8 7.3 -13.8 0C-13.8 -7.4 -6.9 -14.8 0.2 -14.8C7.2 -14.8 14.4 -7.4 14.4 0Z" fill="#fff5b2"></path></g><g transform="translate(1758 471)"><path d="M8 0.1C8 4 4 8.1 -0.1 8.1C-4.3 8.1 -8.6 4 -8.6 0.1C-8.6 -3.8 -4.3 -7.7 -0.1 -7.7C4 -7.7 8 -3.8 8 0.1Z" fill="#fff5b2"></path></g><g transform="translate(1388 259)"><path d="M6.5 0C6.5 3.2 3.2 6.5 -0.1 6.5C-3.4 6.5 -6.9 3.2 -6.9 0C-6.9 -3.2 -3.4 -6.4 -0.1 -6.4C3.2 -6.4 6.5 -3.2 6.5 0Z" fill="#fff5b2"></path></g><g transform="translate(85 8)"><path d="M4 0C4 1.8 2 3.5 0 3.5C-2 3.5 -3.9 1.8 -3.9 0C-3.9 -1.8 -2 -3.7 0 -3.7C2 -3.7 4 -1.8 4 0Z" fill="#fff5b2"></path></g><g transform="translate(1079 799)"><path d="M7.2 0.1C7.2 3.8 3.6 7.6 -0.2 7.6C-4 7.6 -7.9 3.8 -7.9 0.1C-7.9 -3.6 -4 -7.2 -0.2 -7.2C3.6 -7.2 7.2 -3.6 7.2 0.1Z" fill="#fff5b2"></path></g><g transform="translate(354 534)"><path d="M15.4 0.3C15.4 7.5 7.7 15.1 0.2 15.1C-7.3 15.1 -14.6 7.5 -14.6 0.3C-14.6 -7 -7.3 -14 0.2 -14C7.7 -14 15.4 -7 15.4 0.3Z" fill="#fff5b2"></path></g><g transform="translate(457 591)"><path d="M7.4 0C7.4 3.8 3.7 7.5 0.1 7.5C-3.5 7.5 -7 3.8 -7 0C-7 -3.7 -3.5 -7.4 0.1 -7.4C3.7 -7.4 7.4 -3.7 7.4 0Z" fill="#fff5b2"></path></g><g transform="translate(1771 572)"><path d="M10.5 0.1C10.5 5.9 5.3 11.7 0 11.7C-5.3 11.7 -10.5 5.9 -10.5 0.1C-10.5 -5.7 -5.3 -11.4 0 -11.4C5.3 -11.4 10.5 -5.7 10.5 0.1Z" fill="#fff5b2"></path></g><g transform="translate(1167 25)"><path d="M8.7 -0.1C8.7 4.2 4.4 8.3 0 8.3C-4.4 8.3 -8.8 4.2 -8.8 -0.1C-8.8 -4.4 -4.4 -8.8 0 -8.8C4.4 -8.8 8.7 -4.4 8.7 -0.1Z" fill="#fff5b2"></path></g><g transform="translate(642 403)"><path d="M6.5 -0.1C6.5 3 3.2 6 0.1 6C-3.1 6 -6.2 3 -6.2 -0.1C-6.2 -3.2 -3.1 -6.4 0.1 -6.4C3.2 -6.4 6.5 -3.2 6.5 -0.1Z" fill="#fff5b2"></path></g><g transform="translate(494 460)"><path d="M4.9 -0.1C4.9 2.4 2.5 4.9 -0.1 4.9C-2.6 4.9 -5.2 2.4 -5.2 -0.1C-5.2 -2.6 -2.6 -5.2 -0.1 -5.2C2.5 -5.2 4.9 -2.6 4.9 -0.1Z" fill="#fff5b2"></path></g><g transform="translate(1257 117)"><path d="M9.9 0C9.9 4.6 5 9.1 0.2 9.1C-4.6 9.1 -9.2 4.6 -9.2 0C-9.2 -4.5 -4.6 -9.1 0.2 -9.1C5 -9.1 9.9 -4.5 9.9 0Z" fill="#fff5b2"></path></g><g transform="translate(1745 83)"><path d="M10.7 0C10.7 5.3 5.3 10.6 -0.1 10.6C-5.6 10.6 -11.2 5.3 -11.2 0C-11.2 -5.2 -5.6 -10.5 -0.1 -10.5C5.3 -10.5 10.7 -5.2 10.7 0Z" fill="#fff5b2"></path></g><g transform="translate(1156 95)"><path d="M5.9 -0.1C5.9 2.7 3 5.5 0.1 5.5C-2.7 5.5 -5.5 2.7 -5.5 -0.1C-5.5 -2.9 -2.7 -5.9 0.1 -5.9C3 -5.9 5.9 -2.9 5.9 -0.1Z" fill="#fff5b2"></path></g><g transform="translate(949 672)"><path d="M4.7 0C4.7 2.2 2.3 4.4 0.1 4.4C-2.2 4.4 -4.4 2.2 -4.4 0C-4.4 -2.3 -2.2 -4.5 0.1 -4.5C2.3 -4.5 4.7 -2.3 4.7 0Z" fill="#fff5b2"></path></g><g transform="translate(1031 13)"><path d="M6 0C6 2.8 3 5.6 0 5.6C-2.9 5.6 -5.8 2.8 -5.8 0C-5.8 -2.8 -2.9 -5.6 0 -5.6C3 -5.6 6 -2.8 6 0Z" fill="#fff5b2"></path></g><g transform="translate(1851 284)"><path d="M7.7 -0.1C7.7 4 3.8 7.9 -0.1 7.9C-4.1 7.9 -8.2 4 -8.2 -0.1C-8.2 -4.2 -4.1 -8.4 -0.1 -8.4C3.8 -8.4 7.7 -4.2 7.7 -0.1Z" fill="#fff5b2"></path></g><g transform="translate(874 1019)"><path d="M1.9 0C1.9 1 0.9 1.9 0 1.9C-0.9 1.9 -1.8 1 -1.8 0C-1.8 -0.9 -0.9 -1.8 0 -1.8C0.9 -1.8 1.9 -0.9 1.9 0Z" fill="#fff5b2"></path></g><g transform="translate(912 590)"><path d="M9.3 0.1C9.3 4.7 4.6 9.3 0.1 9.3C-4.4 9.3 -8.8 4.7 -8.8 0.1C-8.8 -4.4 -4.4 -8.8 0.1 -8.8C4.6 -8.8 9.3 -4.4 9.3 0.1Z" fill="#fff5b2"></path></g><g transform="translate(9 688)"><path d="M3.8 -0.1C3.8 1.8 1.9 3.6 0.1 3.6C-1.8 3.6 -3.6 1.8 -3.6 -0.1C-3.6 -2 -1.8 -4 0.1 -4C1.9 -4 3.8 -2 3.8 -0.1Z" fill="#fff5b2"></path></g><g transform="translate(651 175)"><path d="M4.6 0C4.6 2.1 2.3 4.2 0 4.2C-2.3 4.2 -4.6 2.1 -4.6 0C-4.6 -2.1 -2.3 -4.2 0 -4.2C2.3 -4.2 4.6 -2.1 4.6 0Z" fill="#fff5b2"></path></g><g transform="translate(654 680)"><path d="M8.2 0C8.2 4.6 4.1 9.2 -0.2 9.2C-4.5 9.2 -9.1 4.6 -9.1 0C-9.1 -4.7 -4.5 -9.3 -0.2 -9.3C4.1 -9.3 8.2 -4.7 8.2 0Z" fill="#fff5b2"></path></g><g transform="translate(1102 1027)"><path d="M1.8 0C1.8 0.9 0.9 1.8 0 1.8C-0.9 1.8 -1.9 0.9 -1.9 0C-1.9 -1 -0.9 -2 0 -2C0.9 -2 1.8 -1 1.8 0Z" fill="#fff5b2"></path></g><g transform="translate(315 872)"><path d="M8.2 -0.1C8.2 4.3 4.1 8.7 -0.2 8.7C-4.6 8.7 -9.2 4.3 -9.2 -0.1C-9.2 -4.6 -4.6 -9.3 -0.2 -9.3C4.1 -9.3 8.2 -4.6 8.2 -0.1Z" fill="#fff5b2"></path></g><g transform="translate(510 340)"><path d="M7.4 0C7.4 3.8 3.7 7.5 0 7.5C-3.8 7.5 -7.5 3.8 -7.5 0C-7.5 -3.7 -3.8 -7.4 0 -7.4C3.7 -7.4 7.4 -3.7 7.4 0Z" fill="#fff5b2"></path></g><g transform="translate(154 102)"><path d="M13.2 -0.2C13.2 5.9 6.6 11.8 0 11.8C-6.5 11.8 -13.1 5.9 -13.1 -0.2C-13.1 -6.3 -6.5 -12.6 0 -12.6C6.6 -12.6 13.2 -6.3 13.2 -0.2Z" fill="#fff5b2"></path></g><g transform="translate(150 537)"><path d="M11.6 0C11.6 5.9 5.8 11.7 -0.2 11.7C-6.2 11.7 -12.4 5.9 -12.4 0C-12.4 -5.8 -6.2 -11.6 -0.2 -11.6C5.8 -11.6 11.6 -5.8 11.6 0Z" fill="#fff5b2"></path></g><g transform="translate(1528 470)"><path d="M9.1 0.1C9.1 4.8 4.5 9.5 -0.2 9.5C-4.9 9.5 -9.8 4.8 -9.8 0.1C-9.8 -4.6 -4.9 -9.2 -0.2 -9.2C4.5 -9.2 9.1 -4.6 9.1 0.1Z" fill="#fff5b2"></path></g><g transform="translate(973 120)"><path d="M3.1 -0.1C3.1 1.5 1.5 3 0 3C-1.5 3 -3 1.5 -3 -0.1C-3 -1.6 -1.5 -3.2 0 -3.2C1.5 -3.2 3.1 -1.6 3.1 -0.1Z" fill="#fff5b2"></path></g><g transform="translate(1580 62)"><path d="M7.6 0.2C7.6 4 3.8 7.9 -0.1 7.9C-4 7.9 -7.9 4 -7.9 0.2C-7.9 -3.6 -4 -7.2 -0.1 -7.2C3.8 -7.2 7.6 -3.6 7.6 0.2Z" fill="#fff5b2"></path></g><g transform="translate(795 559)"><path d="M9 0.1C9 4.7 4.5 9.4 -0.2 9.4C-4.9 9.4 -9.8 4.7 -9.8 0.1C-9.8 -4.6 -4.9 -9.1 -0.2 -9.1C4.5 -9.1 9 -4.6 9 0.1Z" fill="#fff5b2"></path></g><g transform="translate(872 644)"><path d="M14.2 0.2C14.2 7 7.1 13.9 0 13.9C-7.1 13.9 -14.2 7 -14.2 0.2C-14.2 -6.5 -7.1 -13.1 0 -13.1C7.1 -13.1 14.2 -6.5 14.2 0.2Z" fill="#fff5b2"></path></g><g transform="translate(433 669)"><path d="M3.7 0C3.7 1.9 1.8 3.7 0 3.7C-1.8 3.7 -3.6 1.9 -3.6 0C-3.6 -1.9 -1.8 -3.8 0 -3.8C1.8 -3.8 3.7 -1.9 3.7 0Z" fill="#fff5b2"></path></g><g transform="translate(144 647)"><path d="M8 0.1C8 4.2 4 8.5 -0.1 8.5C-4.2 8.5 -8.4 4.2 -8.4 0.1C-8.4 -4 -4.2 -8.1 -0.1 -8.1C4 -8.1 8 -4 8 0.1Z" fill="#fff5b2"></path></g><g transform="translate(136 832)"><path d="M11.2 0C11.2 6.3 5.6 12.6 -0.3 12.6C-6.2 12.6 -12.5 6.3 -12.5 0C-12.5 -6.2 -6.2 -12.4 -0.3 -12.4C5.6 -12.4 11.2 -6.2 11.2 0Z" fill="#fff5b2"></path></g><g transform="translate(491 1043)"><path d="M4.3 0.1C4.3 2.3 2.1 4.5 0 4.5C-2.2 4.5 -4.3 2.3 -4.3 0.1C-4.3 -2.1 -2.2 -4.2 0 -4.2C2.1 -4.2 4.3 -2.1 4.3 0.1Z" fill="#fff5b2"></path></g><g transform="translate(508 911)"><path d="M8.9 0.1C8.9 4.5 4.5 9 0.1 9C-4.2 9 -8.4 4.5 -8.4 0.1C-8.4 -4.2 -4.2 -8.4 0.1 -8.4C4.5 -8.4 8.9 -4.2 8.9 0.1Z" fill="#fff5b2"></path></g><g transform="translate(1803 871)"><path d="M8.8 0C8.8 4.5 4.4 9 -0.1 9C-4.5 9 -9.1 4.5 -9.1 0C-9.1 -4.4 -4.5 -8.9 -0.1 -8.9C4.4 -8.9 8.8 -4.4 8.8 0Z" fill="#fff5b2"></path></g><g transform="translate(1220 36)"><path d="M14 -0.2C14 7.1 7 14.3 0.1 14.3C-6.9 14.3 -13.8 7.1 -13.8 -0.2C-13.8 -7.6 -6.9 -15.1 0.1 -15.1C7 -15.1 14 -7.6 14 -0.2Z" fill="#fff5b2"></path></g><g transform="translate(593 940)"><path d="M14.4 0.1C14.4 7.3 7.2 14.6 -0.2 14.6C-7.7 14.6 -15.4 7.3 -15.4 0.1C-15.4 -7.1 -7.7 -14.1 -0.2 -14.1C7.2 -14.1 14.4 -7.1 14.4 0.1Z" fill="#fff5b2"></path></g><g transform="translate(1534 709)"><path d="M6 -0.1C6 2.9 3 5.8 0 5.8C-2.9 5.8 -5.9 2.9 -5.9 -0.1C-5.9 -3.2 -2.9 -6.3 0 -6.3C3 -6.3 6 -3.2 6 -0.1Z" fill="#fff5b2"></path></g><g transform="translate(845 171)"><path d="M2 0C2 1 1 1.9 0 1.9C-1 1.9 -2 1 -2 0C-2 -0.9 -1 -1.8 0 -1.8C1 -1.8 2 -0.9 2 0Z" fill="#fff5b2"></path></g><g transform="translate(1718 265)"><path d="M3.7 -0.1C3.7 1.8 1.9 3.6 0 3.6C-1.8 3.6 -3.6 1.8 -3.6 -0.1C-3.6 -1.9 -1.8 -3.8 0 -3.8C1.9 -3.8 3.7 -1.9 3.7 -0.1Z" fill="#fff5b2"></path></g><g transform="translate(1091 32)"><path d="M14 -0.2C14 6.4 7 12.9 0.1 12.9C-6.8 12.9 -13.7 6.4 -13.7 -0.2C-13.7 -6.9 -6.8 -13.8 0.1 -13.8C7 -13.8 14 -6.9 14 -0.2Z" fill="#fff5b2"></path></g><g transform="translate(800 221)"><path d="M1.9 0C1.9 1 1 1.9 0 1.9C-1 1.9 -2 1 -2 0C-2 -0.9 -1 -1.9 0 -1.9C1 -1.9 1.9 -0.9 1.9 0Z" fill="#fff5b2"></path></g><g transform="translate(1462 452)"><path d="M7.9 0.1C7.9 4.3 4 8.6 0 8.6C-4 8.6 -8.1 4.3 -8.1 0.1C-8.1 -4.1 -4 -8.2 0 -8.2C4 -8.2 7.9 -4.1 7.9 0.1Z" fill="#fff5b2"></path></g><g transform="translate(511 649)"><path d="M11.6 0.2C11.6 6.2 5.8 12.3 -0.1 12.3C-6.1 12.3 -12.2 6.2 -12.2 0.2C-12.2 -5.7 -6.1 -11.4 -0.1 -11.4C5.8 -11.4 11.6 -5.7 11.6 0.2Z" fill="#fff5b2"></path></g><g transform="translate(1047 508)"><path d="M12.6 -0.2C12.6 5.6 6.3 11.2 0 11.2C-6.3 11.2 -12.5 5.6 -12.5 -0.2C-12.5 -6 -6.3 -11.9 0 -11.9C6.3 -11.9 12.6 -6 12.6 -0.2Z" fill="#fff5b2"></path></g><g transform="translate(1279 592)"><path d="M7.1 -0.1C7.1 3.4 3.5 6.7 0 6.7C-3.5 6.7 -7.1 3.4 -7.1 -0.1C-7.1 -3.6 -3.5 -7.3 0 -7.3C3.5 -7.3 7.1 -3.6 7.1 -0.1Z" fill="#fff5b2"></path></g><g transform="translate(521 79)"><path d="M1.9 0C1.9 0.9 0.9 1.8 0 1.8C-0.9 1.8 -1.8 0.9 -1.8 0C-1.8 -1 -0.9 -2 0 -2C0.9 -2 1.9 -1 1.9 0Z" fill="#fff5b2"></path></g><g transform="translate(1434 1046)"><path d="M9.7 -0.2C9.7 4.5 4.9 9 0.2 9C-4.4 9 -8.9 4.5 -8.9 -0.2C-8.9 -4.9 -4.4 -9.8 0.2 -9.8C4.9 -9.8 9.7 -4.9 9.7 -0.2Z" fill="#fff5b2"></path></g><g transform="translate(1608 144)"><path d="M7.2 0.1C7.2 3.4 3.6 6.7 0.2 6.7C-3.3 6.7 -6.6 3.4 -6.6 0.1C-6.6 -3.3 -3.3 -6.5 0.2 -6.5C3.6 -6.5 7.2 -3.3 7.2 0.1Z" fill="#fff5b2"></path></g><g transform="translate(927 257)"><path d="M3.6 0C3.6 1.9 1.8 3.8 0 3.8C-1.8 3.8 -3.6 1.9 -3.6 0C-3.6 -1.9 -1.8 -3.8 0 -3.8C1.8 -3.8 3.6 -1.9 3.6 0Z" fill="#fff5b2"></path></g><g transform="translate(1008 780)"><path d="M10.2 0.2C10.2 5.4 5.1 10.8 -0.2 10.8C-5.5 10.8 -11 5.4 -11 0.2C-11 -5 -5.5 -10 -0.2 -10C5.1 -10 10.2 -5 10.2 0.2Z" fill="#fff5b2"></path></g><g transform="translate(914 192)"><path d="M11.9 0.1C11.9 6 6 12 -0.1 12C-6.2 12 -12.4 6 -12.4 0.1C-12.4 -5.9 -6.2 -11.8 -0.1 -11.8C6 -11.8 11.9 -5.9 11.9 0.1Z" fill="#fff5b2"></path></g><g transform="translate(1764 818)"><path d="M3.3 0.1C3.3 1.6 1.7 3.2 0 3.2C-1.7 3.2 -3.3 1.6 -3.3 0.1C-3.3 -1.5 -1.7 -3 0 -3C1.7 -3 3.3 -1.5 3.3 0.1Z" fill="#fff5b2"></path></g><g transform="translate(1721 434)"><path d="M13.6 -0.1C13.6 6.4 6.8 12.8 0.3 12.8C-6.2 12.8 -12.4 6.4 -12.4 -0.1C-12.4 -6.6 -6.2 -13.2 0.3 -13.2C6.8 -13.2 13.6 -6.6 13.6 -0.1Z" fill="#fff5b2"></path></g><g transform="translate(1721 588)"><path d="M3.6 0C3.6 1.9 1.8 3.8 0 3.8C-1.8 3.8 -3.6 1.9 -3.6 0C-3.6 -2 -1.8 -4 0 -4C1.8 -4 3.6 -2 3.6 0Z" fill="#fff5b2"></path></g><g transform="translate(1806 417)"><path d="M10.6 -0.3C10.6 5 5.3 10.1 0.1 10.1C-5.1 10.1 -10.2 5 -10.2 -0.3C-10.2 -5.6 -5.1 -11.2 0.1 -11.2C5.3 -11.2 10.6 -5.6 10.6 -0.3Z" fill="#fff5b2"></path></g><g transform="translate(1581 938)"><path d="M12.4 0C12.4 6.1 6.2 12.3 0.2 12.3C-5.9 12.3 -11.8 6.1 -11.8 0C-11.8 -6.2 -5.9 -12.4 0.2 -12.4C6.2 -12.4 12.4 -6.2 12.4 0Z" fill="#fff5b2"></path></g><g transform="translate(1435 79)"><path d="M9.2 0.1C9.2 4.8 4.6 9.6 -0.1 9.6C-4.8 9.6 -9.6 4.8 -9.6 0.1C-9.6 -4.7 -4.8 -9.4 -0.1 -9.4C4.6 -9.4 9.2 -4.7 9.2 0.1Z" fill="#fff5b2"></path></g><g transform="translate(1578 867)"><path d="M9.6 0C9.6 5 4.8 10 -0.2 10C-5.2 10 -10.3 5 -10.3 0C-10.3 -5 -5.2 -9.9 -0.2 -9.9C4.8 -9.9 9.6 -5 9.6 0Z" fill="#fff5b2"></path></g><g transform="translate(820 849)"><path d="M3.9 -0.1C3.9 1.8 1.9 3.6 0 3.6C-2 3.6 -3.9 1.8 -3.9 -0.1C-3.9 -2 -2 -3.9 0 -3.9C1.9 -3.9 3.9 -2 3.9 -0.1Z" fill="#fff5b2"></path></g><g transform="translate(810 73)"><path d="M8.6 0.1C8.6 4 4.3 8.1 0.1 8.1C-4.1 8.1 -8.1 4 -8.1 0.1C-8.1 -3.9 -4.1 -7.7 0.1 -7.7C4.3 -7.7 8.6 -3.9 8.6 0.1Z" fill="#fff5b2"></path></g><g transform="translate(177 41)"><path d="M7 0C7 3.4 3.5 6.8 0.1 6.8C-3.3 6.8 -6.6 3.4 -6.6 0C-6.6 -3.3 -3.3 -6.7 0.1 -6.7C3.5 -6.7 7 -3.3 7 0Z" fill="#fff5b2"></path></g><g transform="translate(1492 402)"><path d="M5.2 0.1C5.2 2.6 2.6 5.2 0.1 5.2C-2.4 5.2 -4.9 2.6 -4.9 0.1C-4.9 -2.5 -2.4 -4.9 0.1 -4.9C2.6 -4.9 5.2 -2.5 5.2 0.1Z" fill="#fff5b2"></path></g><g transform="translate(864 699)"><path d="M12.5 0.3C12.5 6.8 6.3 13.5 -0.2 13.5C-6.6 13.5 -13.2 6.8 -13.2 0.3C-13.2 -6.1 -6.6 -12.3 -0.2 -12.3C6.3 -12.3 12.5 -6.1 12.5 0.3Z" fill="#fff5b2"></path></g><g transform="translate(1432 314)"><path d="M11.9 -0.1C11.9 6.3 5.9 12.6 0 12.6C-5.9 12.6 -11.7 6.3 -11.7 -0.1C-11.7 -6.5 -5.9 -13.1 0 -13.1C5.9 -13.1 11.9 -6.5 11.9 -0.1Z" fill="#fff5b2"></path></g><g transform="translate(1193 792)"><path d="M4.7 -0.1C4.7 2.1 2.3 4.2 0.1 4.2C-2.2 4.2 -4.3 2.1 -4.3 -0.1C-4.3 -2.3 -2.2 -4.6 0.1 -4.6C2.3 -4.6 4.7 -2.3 4.7 -0.1Z" fill="#fff5b2"></path></g><g transform="translate(1233 487)"><path d="M7.2 0C7.2 3.9 3.6 7.7 -0.1 7.7C-3.7 7.7 -7.4 3.9 -7.4 0C-7.4 -4 -3.7 -7.9 -0.1 -7.9C3.6 -7.9 7.2 -4 7.2 0Z" fill="#fff5b2"></path></g><g transform="translate(17 433)"><path d="M12.2 -0.4C12.2 5.9 6.1 11.8 0.1 11.8C-5.8 11.8 -11.7 5.9 -11.7 -0.4C-11.7 -6.6 -5.8 -13.2 0.1 -13.2C6.1 -13.2 12.2 -6.6 12.2 -0.4Z" fill="#fff5b2"></path></g><g transform="translate(528 707)"><path d="M11.5 0.2C11.5 6.1 5.8 12.2 0 12.2C-5.8 12.2 -11.6 6.1 -11.6 0.2C-11.6 -5.7 -5.8 -11.4 0 -11.4C5.8 -11.4 11.5 -5.7 11.5 0.2Z" fill="#fff5b2"></path></g><g transform="translate(1629 456)"><path d="M9.3 -0.1C9.3 4.1 4.7 8.3 0.3 8.3C-4.1 8.3 -8.2 4.1 -8.2 -0.1C-8.2 -4.3 -4.1 -8.6 0.3 -8.6C4.7 -8.6 9.3 -4.3 9.3 -0.1Z" fill="#fff5b2"></path></g><g transform="translate(417 999)"><path d="M11.8 0.2C11.8 6.2 5.9 12.5 0.1 12.5C-5.8 12.5 -11.5 6.2 -11.5 0.2C-11.5 -5.9 -5.8 -11.9 0.1 -11.9C5.9 -11.9 11.8 -5.9 11.8 0.2Z" fill="#fff5b2"></path></g><g transform="translate(987 528)"><path d="M14 0.1C14 6.8 7 13.6 0 13.6C-7.1 13.6 -14.1 6.8 -14.1 0.1C-14.1 -6.5 -7.1 -13 0 -13C7 -13 14 -6.5 14 0.1Z" fill="#fff5b2"></path></g><g transform="translate(759 415)"><path d="M3.1 0.1C3.1 1.6 1.6 3.3 0 3.3C-1.5 3.3 -3.1 1.6 -3.1 0.1C-3.1 -1.5 -1.5 -3.1 0 -3.1C1.6 -3.1 3.1 -1.5 3.1 0.1Z" fill="#fff5b2"></path></g><g transform="translate(1078 96)"><path d="M12.8 0.1C12.8 6.3 6.4 12.6 0.1 12.6C-6.2 12.6 -12.4 6.3 -12.4 0.1C-12.4 -6.2 -6.2 -12.3 0.1 -12.3C6.4 -12.3 12.8 -6.2 12.8 0.1Z" fill="#fff5b2"></path></g><g transform="translate(1455 604)"><path d="M8.4 -0.2C8.4 4.1 4.2 8.2 0 8.2C-4.2 8.2 -8.5 4.1 -8.5 -0.2C-8.5 -4.6 -4.2 -9.2 0 -9.2C4.2 -9.2 8.4 -4.6 8.4 -0.2Z" fill="#fff5b2"></path></g><g transform="translate(792 908)"><path d="M4.9 0C4.9 2.6 2.5 5.1 -0.1 5.1C-2.6 5.1 -5.2 2.6 -5.2 0C-5.2 -2.6 -2.6 -5.2 -0.1 -5.2C2.5 -5.2 4.9 -2.6 4.9 0Z" fill="#fff5b2"></path></g><g transform="translate(29 337)"><path d="M6.7 0C6.7 3.5 3.4 6.9 0 6.9C-3.5 6.9 -6.9 3.5 -6.9 0C-6.9 -3.4 -3.5 -6.8 0 -6.8C3.4 -6.8 6.7 -3.4 6.7 0Z" fill="#fff5b2"></path></g><g transform="translate(793 691)"><path d="M14.5 0.1C14.5 7.5 7.3 15 0 15C-7.3 15 -14.6 7.5 -14.6 0.1C-14.6 -7.4 -7.3 -14.8 0 -14.8C7.3 -14.8 14.5 -7.4 14.5 0.1Z" fill="#fff5b2"></path></g><g transform="translate(568 204)"><path d="M6.3 0C6.3 3 3.1 5.9 0 5.9C-3.1 5.9 -6.1 3 -6.1 0C-6.1 -3 -3.1 -5.9 0 -5.9C3.1 -5.9 6.3 -3 6.3 0Z" fill="#fff5b2"></path></g><g transform="translate(1641 40)"><path d="M10.9 0.3C10.9 5.6 5.5 11.1 0 11.1C-5.5 11.1 -11 5.6 -11 0.3C-11 -5 -5.5 -9.9 0 -9.9C5.5 -9.9 10.9 -5 10.9 0.3Z" fill="#fff5b2"></path></g><g transform="translate(1578 208)"><path d="M13.9 0.4C13.9 7.3 6.9 14.6 0.1 14.6C-6.7 14.6 -13.5 7.3 -13.5 0.4C-13.5 -6.5 -6.7 -13 0.1 -13C6.9 -13 13.9 -6.5 13.9 0.4Z" fill="#fff5b2"></path></g><g transform="translate(758 309)"><path d="M4.3 0.1C4.3 2.3 2.2 4.5 0.1 4.5C-2 4.5 -4.1 2.3 -4.1 0.1C-4.1 -2.1 -2 -4.3 0.1 -4.3C2.2 -4.3 4.3 -2.1 4.3 0.1Z" fill="#fff5b2"></path></g><g transform="translate(693 720)"><path d="M3.8 -0.1C3.8 1.8 1.9 3.5 0 3.5C-2 3.5 -3.9 1.8 -3.9 -0.1C-3.9 -1.9 -2 -3.8 0 -3.8C1.9 -3.8 3.8 -1.9 3.8 -0.1Z" fill="#fff5b2"></path></g><g transform="translate(589 867)"><path d="M11.5 0.2C11.5 5.9 5.8 11.9 0.1 11.9C-5.6 11.9 -11.2 5.9 -11.2 0.2C-11.2 -5.6 -5.6 -11.2 0.1 -11.2C5.8 -11.2 11.5 -5.6 11.5 0.2Z" fill="#fff5b2"></path></g><g transform="translate(1823 473)"><path d="M3 0C3 1.5 1.5 3.1 -0.1 3.1C-1.6 3.1 -3.2 1.5 -3.2 0C-3.2 -1.6 -1.6 -3.2 -0.1 -3.2C1.5 -3.2 3 -1.6 3 0Z" fill="#fff5b2"></path></g><g transform="translate(210 838)"><path d="M1.8 0C1.8 1 0.9 2 0 2C-0.9 2 -1.8 1 -1.8 0C-1.8 -0.9 -0.9 -1.8 0 -1.8C0.9 -1.8 1.8 -0.9 1.8 0Z" fill="#fff5b2"></path></g><g transform="translate(1831 225)"><path d="M3.3 0.1C3.3 1.7 1.6 3.3 0 3.3C-1.6 3.3 -3.1 1.7 -3.1 0.1C-3.1 -1.5 -1.6 -3.1 0 -3.1C1.6 -3.1 3.3 -1.5 3.3 0.1Z" fill="#fff5b2"></path></g><g transform="translate(1478 739)"><path d="M13.5 0C13.5 6.9 6.8 13.7 0.2 13.7C-6.3 13.7 -12.6 6.9 -12.6 0C-12.6 -7 -6.3 -13.9 0.2 -13.9C6.8 -13.9 13.5 -7 13.5 0Z" fill="#fff5b2"></path></g><g transform="translate(593 80)"><path d="M14.2 0C14.2 6.8 7.1 13.6 -0.1 13.6C-7.3 13.6 -14.5 6.8 -14.5 0C-14.5 -6.8 -7.3 -13.5 -0.1 -13.5C7.1 -13.5 14.2 -6.8 14.2 0Z" fill="#fff5b2"></path></g><g transform="translate(1864 696)"><path d="M3.7 0C3.7 1.9 1.9 3.7 0 3.7C-2 3.7 -3.9 1.9 -3.9 0C-3.9 -1.9 -2 -3.8 0 -3.8C1.9 -3.8 3.7 -1.9 3.7 0Z" fill="#fff5b2"></path></g><g transform="translate(663 11)"><path d="M4.3 0C4.3 2.2 2.2 4.4 -0.1 4.4C-2.3 4.4 -4.7 2.2 -4.7 0C-4.7 -2.2 -2.3 -4.4 -0.1 -4.4C2.2 -4.4 4.3 -2.2 4.3 0Z" fill="#fff5b2"></path></g><g transform="translate(1311 133)"><path d="M5.1 -0.1C5.1 2.4 2.5 4.8 0 4.8C-2.6 4.8 -5.3 2.4 -5.3 -0.1C-5.3 -2.6 -2.6 -5.2 0 -5.2C2.5 -5.2 5.1 -2.6 5.1 -0.1Z" fill="#fff5b2"></path></g><g transform="translate(73 446)"><path d="M9.9 -0.1C9.9 4.9 4.9 9.8 0.1 9.8C-4.7 9.8 -9.4 4.9 -9.4 -0.1C-9.4 -5.1 -4.7 -10.1 0.1 -10.1C4.9 -10.1 9.9 -5.1 9.9 -0.1Z" fill="#fff5b2"></path></g><g transform="translate(845 356)"><path d="M15.9 -0.1C15.9 7.1 8 14.1 0.3 14.1C-7.4 14.1 -14.8 7.1 -14.8 -0.1C-14.8 -7.2 -7.4 -14.4 0.3 -14.4C8 -14.4 15.9 -7.2 15.9 -0.1Z" fill="#fff5b2"></path></g><g transform="translate(1881 150)"><path d="M9.4 0.2C9.4 5.1 4.7 10.2 -0.2 10.2C-5 10.2 -10.1 5.1 -10.1 0.2C-10.1 -4.7 -5 -9.4 -0.2 -9.4C4.7 -9.4 9.4 -4.7 9.4 0.2Z" fill="#fff5b2"></path></g><g transform="translate(227 230)"><path d="M8 -0.2C8 3.5 4 7 0 7C-4 7 -7.9 3.5 -7.9 -0.2C-7.9 -3.9 -4 -7.8 0 -7.8C4 -7.8 8 -3.9 8 -0.2Z" fill="#fff5b2"></path></g><g transform="translate(610 253)"><path d="M8.8 0.2C8.8 4.6 4.4 9.1 0 9.1C-4.3 9.1 -8.6 4.6 -8.6 0.2C-8.6 -4.2 -4.3 -8.4 0 -8.4C4.4 -8.4 8.8 -4.2 8.8 0.2Z" fill="#fff5b2"></path></g><g transform="translate(479 294)"><path d="M11.7 0.2C11.7 6.5 5.8 13.1 -0.3 13.1C-6.4 13.1 -12.7 6.5 -12.7 0.2C-12.7 -6.2 -6.4 -12.4 -0.3 -12.4C5.8 -12.4 11.7 -6.2 11.7 0.2Z" fill="#fff5b2"></path></g><g transform="translate(735 190)"><path d="M11.8 -0.2C11.8 6.3 5.9 12.5 -0.2 12.5C-6.4 12.5 -12.7 6.3 -12.7 -0.2C-12.7 -6.6 -6.4 -13.2 -0.2 -13.2C5.9 -13.2 11.8 -6.6 11.8 -0.2Z" fill="#fff5b2"></path></g><g transform="translate(1629 775)"><path d="M8.4 0C8.4 4.4 4.2 8.8 -0.1 8.8C-4.5 8.8 -9 4.4 -9 0C-9 -4.4 -4.5 -8.9 -0.1 -8.9C4.2 -8.9 8.4 -4.4 8.4 0Z" fill="#fff5b2"></path></g><g transform="translate(1077 643)"><path d="M7.5 0C7.5 3.9 3.7 7.8 -0.1 7.8C-3.9 7.8 -7.8 3.9 -7.8 0C-7.8 -3.8 -3.9 -7.6 -0.1 -7.6C3.7 -7.6 7.5 -3.8 7.5 0Z" fill="#fff5b2"></path></g><g transform="translate(1536 806)"><path d="M14.6 0.1C14.6 7.3 7.3 14.6 -0.1 14.6C-7.6 14.6 -15.2 7.3 -15.2 0.1C-15.2 -7.2 -7.6 -14.4 -0.1 -14.4C7.3 -14.4 14.6 -7.2 14.6 0.1Z" fill="#fff5b2"></path></g><g transform="translate(1025 129)"><path d="M13.5 0C13.5 6.7 6.8 13.5 0 13.5C-6.7 13.5 -13.5 6.7 -13.5 0C-13.5 -6.7 -6.7 -13.5 0 -13.5C6.8 -13.5 13.5 -6.7 13.5 0Z" fill="#fff5b2"></path></g><g transform="translate(1202 414)"><path d="M9.5 0C9.5 4.8 4.7 9.6 0.2 9.6C-4.4 9.6 -8.8 4.8 -8.8 0C-8.8 -4.8 -4.4 -9.5 0.2 -9.5C4.7 -9.5 9.5 -4.8 9.5 0Z" fill="#fff5b2"></path></g><g transform="translate(703 1069)"><path d="M4.7 0.1C4.7 2.6 2.3 5.2 -0.1 5.2C-2.6 5.2 -5.3 2.6 -5.3 0.1C-5.3 -2.3 -2.6 -4.7 -0.1 -4.7C2.3 -4.7 4.7 -2.3 4.7 0.1Z" fill="#fff5b2"></path></g><g transform="translate(425 810)"><path d="M14.1 -0.2C14.1 7.2 7 14.5 0 14.5C-7.1 14.5 -14.2 7.2 -14.2 -0.2C-14.2 -7.7 -7.1 -15.4 0 -15.4C7 -15.4 14.1 -7.7 14.1 -0.2Z" fill="#fff5b2"></path></g><g transform="translate(1206 663)"><path d="M14.1 0C14.1 6.9 7 13.9 -0.3 13.9C-7.6 13.9 -15.1 6.9 -15.1 0C-15.1 -6.9 -7.6 -13.7 -0.3 -13.7C7 -13.7 14.1 -6.9 14.1 0Z" fill="#fff5b2"></path></g><g transform="translate(1110 918)"><path d="M2 0C2 0.9 1 1.8 0 1.8C-1 1.8 -2 0.9 -2 0C-2 -0.9 -1 -1.8 0 -1.8C1 -1.8 2 -0.9 2 0Z" fill="#fff5b2"></path></g><g transform="translate(1847 17)"><path d="M10.8 0.1C10.8 5.6 5.4 11.2 -0.1 11.2C-5.6 11.2 -11.2 5.6 -11.2 0.1C-11.2 -5.3 -5.6 -10.6 -0.1 -10.6C5.4 -10.6 10.8 -5.3 10.8 0.1Z" fill="#fff5b2"></path></g><g transform="translate(940 744)"><path d="M14.5 -0.3C14.5 6.5 7.3 13 0 13C-7.2 13 -14.4 6.5 -14.4 -0.3C-14.4 -7.2 -7.2 -14.3 0 -14.3C7.3 -14.3 14.5 -7.2 14.5 -0.3Z" fill="#fff5b2"></path></g><g transform="translate(1430 176)"><path d="M4.9 0C4.9 2.3 2.4 4.7 0 4.7C-2.4 4.7 -4.8 2.3 -4.8 0C-4.8 -2.3 -2.4 -4.7 0 -4.7C2.4 -4.7 4.9 -2.3 4.9 0Z" fill="#fff5b2"></path></g><g transform="translate(1148 461)"><path d="M14 -0.1C14 7.1 7 14.2 0.1 14.2C-6.8 14.2 -13.5 7.1 -13.5 -0.1C-13.5 -7.2 -6.8 -14.4 0.1 -14.4C7 -14.4 14 -7.2 14 -0.1Z" fill="#fff5b2"></path></g><g transform="translate(1647 608)"><path d="M5.3 -0.1C5.3 2.5 2.6 5 0.1 5C-2.5 5 -5.1 2.5 -5.1 -0.1C-5.1 -2.7 -2.5 -5.3 0.1 -5.3C2.6 -5.3 5.3 -2.7 5.3 -0.1Z" fill="#fff5b2"></path></g><g transform="translate(542 277)"><path d="M14.8 0.4C14.8 7.5 7.4 15.1 0.3 15.1C-6.9 15.1 -13.7 7.5 -13.7 0.4C-13.7 -6.8 -6.9 -13.5 0.3 -13.5C7.4 -13.5 14.8 -6.8 14.8 0.4Z" fill="#fff5b2"></path></g><g transform="translate(991 853)"><path d="M3.9 -0.1C3.9 1.8 2 3.6 0.1 3.6C-1.8 3.6 -3.6 1.8 -3.6 -0.1C-3.6 -2 -1.8 -3.9 0.1 -3.9C2 -3.9 3.9 -2 3.9 -0.1Z" fill="#fff5b2"></path></g><g transform="translate(892 327)"><path d="M7.6 0.2C7.6 4 3.8 7.9 0 7.9C-3.8 7.9 -7.6 4 -7.6 0.2C-7.6 -3.5 -3.8 -7 0 -7C3.8 -7 7.6 -3.5 7.6 0.2Z" fill="#fff5b2"></path></g><g transform="translate(1837 94)"><path d="M4.2 0C4.2 2.2 2.1 4.5 0 4.5C-2.1 4.5 -4.2 2.2 -4.2 0C-4.2 -2.2 -2.1 -4.3 0 -4.3C2.1 -4.3 4.2 -2.2 4.2 0Z" fill="#fff5b2"></path></g><g transform="translate(33 120)"><path d="M5.9 0.1C5.9 3.3 3 6.5 0 6.5C-3.1 6.5 -6.1 3.3 -6.1 0.1C-6.1 -3 -3.1 -6 0 -6C3 -6 5.9 -3 5.9 0.1Z" fill="#fff5b2"></path></g><g transform="translate(1594 391)"><path d="M3.2 0C3.2 1.6 1.6 3.2 0 3.2C-1.5 3.2 -3.1 1.6 -3.1 0C-3.1 -1.6 -1.5 -3.2 0 -3.2C1.6 -3.2 3.2 -1.6 3.2 0Z" fill="#fff5b2"></path></g><g transform="translate(1056 265)"><path d="M2.7 0C2.7 1.3 1.3 2.5 0.1 2.5C-1.2 2.5 -2.4 1.3 -2.4 0C-2.4 -1.2 -1.2 -2.4 0.1 -2.4C1.3 -2.4 2.7 -1.2 2.7 0Z" fill="#fff5b2"></path></g><g transform="translate(1409 628)"><path d="M4.4 0.1C4.4 2.3 2.2 4.6 0 4.6C-2.3 4.6 -4.6 2.3 -4.6 0.1C-4.6 -2.2 -2.3 -4.3 0 -4.3C2.2 -4.3 4.4 -2.2 4.4 0.1Z" fill="#fff5b2"></path></g><g transform="translate(296 793)"><path d="M9.9 0.1C9.9 5 5 9.9 0 9.9C-4.9 9.9 -9.8 5 -9.8 0.1C-9.8 -4.8 -4.9 -9.7 0 -9.7C5 -9.7 9.9 -4.8 9.9 0.1Z" fill="#fff5b2"></path></g><g transform="translate(327 438)"><path d="M15.8 -0.1C15.8 7.6 7.9 15.1 0.1 15.1C-7.8 15.1 -15.6 7.6 -15.6 -0.1C-15.6 -7.7 -7.8 -15.4 0.1 -15.4C7.9 -15.4 15.8 -7.7 15.8 -0.1Z" fill="#fff5b2"></path></g><g transform="translate(1726 1006)"><path d="M11.3 -0.1C11.3 5.1 5.6 10.2 0 10.2C-5.6 10.2 -11.2 5.1 -11.2 -0.1C-11.2 -5.4 -5.6 -10.7 0 -10.7C5.6 -10.7 11.3 -5.4 11.3 -0.1Z" fill="#fff5b2"></path></g><g transform="translate(275 357)"><path d="M14.3 -0.1C14.3 6.5 7.2 13.1 0.2 13.1C-6.8 13.1 -13.5 6.5 -13.5 -0.1C-13.5 -6.7 -6.8 -13.4 0.2 -13.4C7.2 -13.4 14.3 -6.7 14.3 -0.1Z" fill="#fff5b2"></path></g><g transform="translate(689 591)"><path d="M14.5 0.1C14.5 6.8 7.2 13.6 0 13.6C-7.2 13.6 -14.4 6.8 -14.4 0.1C-14.4 -6.6 -7.2 -13.1 0 -13.1C7.2 -13.1 14.5 -6.6 14.5 0.1Z" fill="#fff5b2"></path></g><g transform="translate(1913 43)"><path d="M7.8 0.1C7.8 3.7 3.9 7.3 0 7.3C-3.9 7.3 -7.7 3.7 -7.7 0.1C-7.7 -3.6 -3.9 -7.1 0 -7.1C3.9 -7.1 7.8 -3.6 7.8 0.1Z" fill="#fff5b2"></path></g><g transform="translate(1262 196)"><path d="M14.6 0C14.6 7.6 7.3 15.2 -0.2 15.2C-7.7 15.2 -15.4 7.6 -15.4 0C-15.4 -7.6 -7.7 -15.3 -0.2 -15.3C7.3 -15.3 14.6 -7.6 14.6 0Z" fill="#fff5b2"></path></g><g transform="translate(760 1078)"><path d="M8.7 0C8.7 4.5 4.4 9 -0.1 9C-4.5 9 -9 4.5 -9 0C-9 -4.6 -4.5 -9.1 -0.1 -9.1C4.4 -9.1 8.7 -4.6 8.7 0Z" fill="#fff5b2"></path></g><g transform="translate(1322 484)"><path d="M4.9 0C4.9 2.6 2.4 5.1 0 5.1C-2.4 5.1 -4.9 2.6 -4.9 0C-4.9 -2.5 -2.4 -5 0 -5C2.4 -5 4.9 -2.5 4.9 0Z" fill="#fff5b2"></path></g><g transform="translate(1354 857)"><path d="M1.9 0C1.9 0.9 0.9 1.8 0 1.8C-1 1.8 -2 0.9 -2 0C-2 -0.9 -1 -1.9 0 -1.9C0.9 -1.9 1.9 -0.9 1.9 0Z" fill="#fff5b2"></path></g><g transform="translate(363 745)"><path d="M5.6 -0.1C5.6 2.8 2.8 5.7 -0.1 5.7C-2.9 5.7 -5.8 2.8 -5.8 -0.1C-5.8 -3 -2.9 -5.9 -0.1 -5.9C2.8 -5.9 5.6 -3 5.6 -0.1Z" fill="#fff5b2"></path></g><g transform="translate(885 534)"><path d="M11.9 -0.3C11.9 5.4 5.9 10.8 0.3 10.8C-5.3 10.8 -10.5 5.4 -10.5 -0.3C-10.5 -5.9 -5.3 -11.9 0.3 -11.9C5.9 -11.9 11.9 -5.9 11.9 -0.3Z" fill="#fff5b2"></path></g><g transform="translate(746 531)"><path d="M3.8 0C3.8 1.9 1.9 3.7 0.1 3.7C-1.8 3.7 -3.5 1.9 -3.5 0C-3.5 -1.9 -1.8 -3.8 0.1 -3.8C1.9 -3.8 3.8 -1.9 3.8 0Z" fill="#fff5b2"></path></g><g transform="translate(467 20)"><path d="M4.6 0.1C4.6 2.3 2.3 4.5 0 4.5C-2.3 4.5 -4.7 2.3 -4.7 0.1C-4.7 -2.1 -2.3 -4.2 0 -4.2C2.3 -4.2 4.6 -2.1 4.6 0.1Z" fill="#fff5b2"></path></g><g transform="translate(802 478)"><path d="M7.3 0C7.3 3.3 3.6 6.5 0.1 6.5C-3.5 6.5 -6.9 3.3 -6.9 0C-6.9 -3.2 -3.5 -6.4 0.1 -6.4C3.6 -6.4 7.3 -3.2 7.3 0Z" fill="#fff5b2"></path></g><g transform="translate(330 224)"><path d="M15.2 0.1C15.2 7.6 7.6 15.2 0 15.2C-7.5 15.2 -15.1 7.6 -15.1 0.1C-15.1 -7.4 -7.5 -14.7 0 -14.7C7.6 -14.7 15.2 -7.4 15.2 0.1Z" fill="#fff5b2"></path></g><g transform="translate(1692 57)"><path d="M9.2 0.1C9.2 4.8 4.6 9.6 0.1 9.6C-4.5 9.6 -8.9 4.8 -8.9 0.1C-8.9 -4.7 -4.5 -9.4 0.1 -9.4C4.6 -9.4 9.2 -4.7 9.2 0.1Z" fill="#fff5b2"></path></g><g transform="translate(364 90)"><path d="M14.7 0.1C14.7 7.8 7.4 15.6 -0.3 15.6C-8 15.6 -15.9 7.8 -15.9 0.1C-15.9 -7.6 -8 -15.2 -0.3 -15.2C7.4 -15.2 14.7 -7.6 14.7 0.1Z" fill="#fff5b2"></path></g><g transform="translate(537 541)"><path d="M11.7 0.3C11.7 6.6 5.8 13.2 0 13.2C-5.8 13.2 -11.7 6.6 -11.7 0.3C-11.7 -6 -5.8 -11.9 0 -11.9C5.8 -11.9 11.7 -6 11.7 0.3Z" fill="#fff5b2"></path></g><g transform="translate(1478 533)"><path d="M6.6 0C6.6 3.2 3.3 6.4 0 6.4C-3.3 6.4 -6.6 3.2 -6.6 0C-6.6 -3.3 -3.3 -6.5 0 -6.5C3.3 -6.5 6.6 -3.3 6.6 0Z" fill="#fff5b2"></path></g><g transform="translate(1650 696)"><path d="M13.5 -0.1C13.5 7.2 6.8 14.3 0.1 14.3C-6.6 14.3 -13.1 7.2 -13.1 -0.1C-13.1 -7.3 -6.6 -14.6 0.1 -14.6C6.8 -14.6 13.5 -7.3 13.5 -0.1Z" fill="#fff5b2"></path></g><g transform="translate(646 913)"><path d="M6.2 -0.1C6.2 3 3.1 6.1 0 6.1C-3.2 6.1 -6.3 3 -6.3 -0.1C-6.3 -3.3 -3.2 -6.6 0 -6.6C3.1 -6.6 6.2 -3.3 6.2 -0.1Z" fill="#fff5b2"></path></g><g transform="translate(92 589)"><path d="M7.8 -0.1C7.8 3.8 3.9 7.7 -0.1 7.7C-4 7.7 -8.1 3.8 -8.1 -0.1C-8.1 -4.1 -4 -8.2 -0.1 -8.2C3.9 -8.2 7.8 -4.1 7.8 -0.1Z" fill="#fff5b2"></path></g><g transform="translate(82 385)"><path d="M11.2 -0.1C11.2 6 5.6 11.9 0 11.9C-5.7 11.9 -11.4 6 -11.4 -0.1C-11.4 -6.2 -5.7 -12.4 0 -12.4C5.6 -12.4 11.2 -6.2 11.2 -0.1Z" fill="#fff5b2"></path></g><g transform="translate(938 901)"><path d="M13 0.2C13 6.9 6.5 13.8 0 13.8C-6.5 13.8 -13 6.9 -13 0.2C-13 -6.5 -6.5 -13 0 -13C6.5 -13 13 -6.5 13 0.2Z" fill="#fff5b2"></path></g><g transform="translate(1663 1075)"><path d="M10.1 0C10.1 4.9 5.1 9.9 -0.1 9.9C-5.3 9.9 -10.7 4.9 -10.7 0C-10.7 -4.8 -5.3 -9.7 -0.1 -9.7C5.1 -9.7 10.1 -4.8 10.1 0Z" fill="#fff5b2"></path></g><g transform="translate(1468 254)"><path d="M12.7 -0.1C12.7 6.6 6.3 13.3 -0.3 13.3C-7 13.3 -13.9 6.6 -13.9 -0.1C-13.9 -6.8 -7 -13.7 -0.3 -13.7C6.3 -13.7 12.7 -6.8 12.7 -0.1Z" fill="#fff5b2"></path></g><g transform="translate(415 413)"><path d="M4.2 -0.1C4.2 2.2 2.1 4.4 0 4.4C-2.1 4.4 -4.2 2.2 -4.2 -0.1C-4.2 -2.3 -2.1 -4.6 0 -4.6C2.1 -4.6 4.2 -2.3 4.2 -0.1Z" fill="#fff5b2"></path></g><g transform="translate(952 959)"><path d="M6.8 0C6.8 3.6 3.4 7.1 0 7.1C-3.5 7.1 -7 3.6 -7 0C-7 -3.6 -3.5 -7.1 0 -7.1C3.4 -7.1 6.8 -3.6 6.8 0Z" fill="#fff5b2"></path></g><g transform="translate(1915 284)"><path d="M14.4 0.3C14.4 8 7.2 16 -0.1 16C-7.4 16 -14.9 8 -14.9 0.3C-14.9 -7.4 -7.4 -14.8 -0.1 -14.8C7.2 -14.8 14.4 -7.4 14.4 0.3Z" fill="#fff5b2"></path></g><g transform="translate(745 97)"><path d="M9.3 0.1C9.3 4.8 4.7 9.6 -0.1 9.6C-4.8 9.6 -9.7 4.8 -9.7 0.1C-9.7 -4.7 -4.8 -9.4 -0.1 -9.4C4.7 -9.4 9.3 -4.7 9.3 0.1Z" fill="#fff5b2"></path></g><g transform="translate(1298 697)"><path d="M7.6 0C7.6 3.7 3.8 7.4 0 7.4C-3.8 7.4 -7.6 3.7 -7.6 0C-7.6 -3.6 -3.8 -7.3 0 -7.3C3.8 -7.3 7.6 -3.6 7.6 0Z" fill="#fff5b2"></path></g><g transform="translate(177 359)"><path d="M12.4 0C12.4 6.4 6.2 12.8 -0.2 12.8C-6.6 12.8 -13.1 6.4 -13.1 0C-13.1 -6.4 -6.6 -12.7 -0.2 -12.7C6.2 -12.7 12.4 -6.4 12.4 0Z" fill="#fff5b2"></path></g><g transform="translate(99 792)"><path d="M5.3 0.1C5.3 2.6 2.6 5.3 0.1 5.3C-2.4 5.3 -4.8 2.6 -4.8 0.1C-4.8 -2.4 -2.4 -4.8 0.1 -4.8C2.6 -4.8 5.3 -2.4 5.3 0.1Z" fill="#fff5b2"></path></g><g transform="translate(70 679)"><path d="M8 0C8 4.1 4 8.2 0.1 8.2C-3.9 8.2 -7.8 4.1 -7.8 0C-7.8 -4.1 -3.9 -8.1 0.1 -8.1C4 -8.1 8 -4.1 8 0Z" fill="#fff5b2"></path></g><g transform="translate(1506 632)"><path d="M6.1 0.2C6.1 3.3 3.1 6.7 0 6.7C-3.1 6.7 -6.2 3.3 -6.2 0.2C-6.2 -3 -3.1 -5.9 0 -5.9C3.1 -5.9 6.1 -3 6.1 0.2Z" fill="#fff5b2"></path></g><g transform="translate(1707 705)"><path d="M8.1 0.1C8.1 4.2 4 8.3 0 8.3C-4 8.3 -8 4.2 -8 0.1C-8 -4 -4 -8 0 -8C4 -8 8.1 -4 8.1 0.1Z" fill="#fff5b2"></path></g><g transform="translate(1876 1012)"><path d="M9.1 0.3C9.1 4.7 4.5 9.3 0.1 9.3C-4.4 9.3 -8.8 4.7 -8.8 0.3C-8.8 -4.1 -4.4 -8.2 0.1 -8.2C4.5 -8.2 9.1 -4.1 9.1 0.3Z" fill="#fff5b2"></path></g><g transform="translate(802 1009)"><path d="M12.7 0.1C12.7 6.7 6.3 13.3 -0.1 13.3C-6.6 13.3 -13.2 6.7 -13.2 0.1C-13.2 -6.5 -6.6 -12.9 -0.1 -12.9C6.3 -12.9 12.7 -6.5 12.7 0.1Z" fill="#fff5b2"></path></g><g transform="translate(1352 53)"><path d="M8.7 0.2C8.7 4.6 4.3 9.1 -0.1 9.1C-4.5 9.1 -9.1 4.6 -9.1 0.2C-9.1 -4.2 -4.5 -8.4 -0.1 -8.4C4.3 -8.4 8.7 -4.2 8.7 0.2Z" fill="#fff5b2"></path></g><g transform="translate(1468 129)"><path d="M11.2 0.1C11.2 6 5.6 12.1 0 12.1C-5.6 12.1 -11.2 6 -11.2 0.1C-11.2 -5.8 -5.6 -11.5 0 -11.5C5.6 -11.5 11.2 -5.8 11.2 0.1Z" fill="#fff5b2"></path></g><g transform="translate(1483 895)"><path d="M1.9 0C1.9 1 1 1.9 0 1.9C-0.9 1.9 -1.8 1 -1.8 0C-1.8 -0.9 -0.9 -1.8 0 -1.8C1 -1.8 1.9 -0.9 1.9 0Z" fill="#fff5b2"></path></g><g transform="translate(416 290)"><path d="M2.4 0C2.4 1.3 1.2 2.6 0 2.6C-1.3 2.6 -2.6 1.3 -2.6 0C-2.6 -1.2 -1.3 -2.4 0 -2.4C1.2 -2.4 2.4 -1.2 2.4 0Z" fill="#fff5b2"></path></g><g transform="translate(183 1045)"><path d="M8.9 -0.1C8.9 4.2 4.4 8.3 0.1 8.3C-4.1 8.3 -8.3 4.2 -8.3 -0.1C-8.3 -4.4 -4.1 -8.8 0.1 -8.8C4.4 -8.8 8.9 -4.4 8.9 -0.1Z" fill="#fff5b2"></path></g><g transform="translate(764 781)"><path d="M4.5 0.1C4.5 2.3 2.3 4.5 0 4.5C-2.3 4.5 -4.5 2.3 -4.5 0.1C-4.5 -2.2 -2.3 -4.3 0 -4.3C2.3 -4.3 4.5 -2.2 4.5 0.1Z" fill="#fff5b2"></path></g><g transform="translate(1243 950)"><path d="M14.3 0C14.3 7.2 7.2 14.5 0 14.5C-7.1 14.5 -14.2 7.2 -14.2 0C-14.2 -7.3 -7.1 -14.5 0 -14.5C7.2 -14.5 14.3 -7.3 14.3 0Z" fill="#fff5b2"></path></g><g transform="translate(2 838)"><path d="M3.8 -0.1C3.8 1.8 1.9 3.5 0 3.5C-1.8 3.5 -3.7 1.8 -3.7 -0.1C-3.7 -2 -1.8 -3.9 0 -3.9C1.9 -3.9 3.8 -2 3.8 -0.1Z" fill="#fff5b2"></path></g><g transform="translate(1439 856)"><path d="M4.8 0.1C4.8 2.7 2.4 5.3 -0.1 5.3C-2.7 5.3 -5.3 2.7 -5.3 0.1C-5.3 -2.5 -2.7 -5.1 -0.1 -5.1C2.4 -5.1 4.8 -2.5 4.8 0.1Z" fill="#fff5b2"></path></g><g transform="translate(1771 355)"><path d="M7.6 -0.2C7.6 3.6 3.8 7.1 0.1 7.1C-3.5 7.1 -7.1 3.6 -7.1 -0.2C-7.1 -4 -3.5 -7.9 0.1 -7.9C3.8 -7.9 7.6 -4 7.6 -0.2Z" fill="#fff5b2"></path></g><g transform="translate(1273 444)"><path d="M4 -0.1C4 1.8 2 3.7 0.1 3.7C-1.8 3.7 -3.7 1.8 -3.7 -0.1C-3.7 -2 -1.8 -3.9 0.1 -3.9C2 -3.9 4 -2 4 -0.1Z" fill="#fff5b2"></path></g><g transform="translate(1131 570)"><path d="M15.9 0.1C15.9 7.9 7.9 15.9 0.2 15.9C-7.6 15.9 -15.3 7.9 -15.3 0.1C-15.3 -7.8 -7.6 -15.5 0.2 -15.5C7.9 -15.5 15.9 -7.8 15.9 0.1Z" fill="#fff5b2"></path></g><g transform="translate(678 863)"><path d="M12.5 0.1C12.5 6.3 6.3 12.6 -0.1 12.6C-6.5 12.6 -13.1 6.3 -13.1 0.1C-13.1 -6.2 -6.5 -12.4 -0.1 -12.4C6.3 -12.4 12.5 -6.2 12.5 0.1Z" fill="#fff5b2"></path></g><g transform="translate(1266 374)"><path d="M2 0C2 0.9 1 1.8 0 1.8C-1 1.8 -1.9 0.9 -1.9 0C-1.9 -1 -1 -1.9 0 -1.9C1 -1.9 2 -1 2 0Z" fill="#fff5b2"></path></g><g transform="translate(1874 383)"><path d="M4.1 0C4.1 2.2 2.1 4.4 -0.1 4.4C-2.2 4.4 -4.4 2.2 -4.4 0C-4.4 -2.2 -2.2 -4.5 -0.1 -4.5C2.1 -4.5 4.1 -2.2 4.1 0Z" fill="#fff5b2"></path></g><g transform="translate(583 325)"><path d="M12.5 0.1C12.5 6 6.3 12.1 0 12.1C-6.3 12.1 -12.6 6 -12.6 0.1C-12.6 -5.9 -6.3 -11.8 0 -11.8C6.3 -11.8 12.5 -5.9 12.5 0.1Z" fill="#fff5b2"></path></g><g transform="translate(1566 505)"><path d="M8.5 0C8.5 4.6 4.2 9.2 0.1 9.2C-4.1 9.2 -8.2 4.6 -8.2 0C-8.2 -4.5 -4.1 -9.1 0.1 -9.1C4.2 -9.1 8.5 -4.5 8.5 0Z" fill="#fff5b2"></path></g><g transform="translate(1911 616)"><path d="M8.3 0.1C8.3 4.3 4.2 8.6 0 8.6C-4.1 8.6 -8.2 4.3 -8.2 0.1C-8.2 -4.1 -4.1 -8.2 0 -8.2C4.2 -8.2 8.3 -4.1 8.3 0.1Z" fill="#fff5b2"></path></g><g transform="translate(513 818)"><path d="M9 0.1C9 4.8 4.5 9.6 0 9.6C-4.6 9.6 -9.2 4.8 -9.2 0.1C-9.2 -4.7 -4.6 -9.3 0 -9.3C4.5 -9.3 9 -4.7 9 0.1Z" fill="#fff5b2"></path></g><g transform="translate(853 24)"><path d="M8.5 0C8.5 4.2 4.2 8.4 0.1 8.4C-4 8.4 -8 4.2 -8 0C-8 -4.2 -4 -8.5 0.1 -8.5C4.2 -8.5 8.5 -4.2 8.5 0Z" fill="#fff5b2"></path></g><g transform="translate(1002 285)"><path d="M3.3 0C3.3 1.6 1.6 3.1 0 3.1C-1.7 3.1 -3.3 1.6 -3.3 0C-3.3 -1.6 -1.7 -3.2 0 -3.2C1.6 -3.2 3.3 -1.6 3.3 0Z" fill="#fff5b2"></path></g><g transform="translate(356 1061)"><path d="M14.3 0C14.3 6.4 7.1 12.9 0.4 12.9C-6.4 12.9 -12.9 6.4 -12.9 0C-12.9 -6.4 -6.4 -12.9 0.4 -12.9C7.1 -12.9 14.3 -6.4 14.3 0Z" fill="#fff5b2"></path></g><g transform="translate(235 598)"><path d="M13.8 0.1C13.8 7.1 6.9 14.2 -0.1 14.2C-7.1 14.2 -14.2 7.1 -14.2 0.1C-14.2 -6.8 -7.1 -13.6 -0.1 -13.6C6.9 -13.6 13.8 -6.8 13.8 0.1Z" fill="#fff5b2"></path></g><g transform="translate(922 1042)"><path d="M14.3 0.2C14.3 7.1 7.2 14.2 0 14.2C-7.2 14.2 -14.4 7.1 -14.4 0.2C-14.4 -6.6 -7.2 -13.3 0 -13.3C7.2 -13.3 14.3 -6.6 14.3 0.2Z" fill="#fff5b2"></path></g><g transform="translate(999 579)"><path d="M6.3 0C6.3 3.3 3.2 6.5 0 6.5C-3.2 6.5 -6.4 3.3 -6.4 0C-6.4 -3.3 -3.2 -6.6 0 -6.6C3.2 -6.6 6.3 -3.3 6.3 0Z" fill="#fff5b2"></path></g><g transform="translate(1412 9)"><path d="M8.9 0.2C8.9 4.6 4.4 9.2 -0.1 9.2C-4.5 9.2 -9.1 4.6 -9.1 0.2C-9.1 -4.2 -4.5 -8.4 -0.1 -8.4C4.4 -8.4 8.9 -4.2 8.9 0.2Z" fill="#fff5b2"></path></g><g transform="translate(419 133)"><path d="M7.6 0C7.6 4 3.8 8.1 -0.2 8.1C-4.3 8.1 -8.6 4 -8.6 0C-8.6 -4.1 -4.3 -8.2 -0.2 -8.2C3.8 -8.2 7.6 -4.1 7.6 0Z" fill="#fff5b2"></path></g><g transform="translate(972 469)"><path d="M14.7 0C14.7 7.1 7.3 14.3 -0.1 14.3C-7.6 14.3 -15.2 7.1 -15.2 0C-15.2 -7.2 -7.6 -14.4 -0.1 -14.4C7.3 -14.4 14.7 -7.2 14.7 0Z" fill="#fff5b2"></path></g><g transform="translate(229 927)"><path d="M2.6 0C2.6 1.2 1.3 2.3 0 2.3C-1.3 2.3 -2.6 1.2 -2.6 0C-2.6 -1.2 -1.3 -2.4 0 -2.4C1.3 -2.4 2.6 -1.2 2.6 0Z" fill="#fff5b2"></path></g><g transform="translate(447 882)"><path d="M2 0C2 1 1 1.9 0 1.9C-0.9 1.9 -1.8 1 -1.8 0C-1.8 -0.9 -0.9 -1.8 0 -1.8C1 -1.8 2 -0.9 2 0Z" fill="#fff5b2"></path></g><g transform="translate(660 780)"><path d="M3.1 -0.1C3.1 1.5 1.6 3 0 3C-1.6 3 -3.2 1.5 -3.2 -0.1C-3.2 -1.6 -1.6 -3.2 0 -3.2C1.6 -3.2 3.1 -1.6 3.1 -0.1Z" fill="#fff5b2"></path></g><g transform="translate(138 754)"><path d="M2.6 0C2.6 1.3 1.3 2.6 0.1 2.6C-1.2 2.6 -2.4 1.3 -2.4 0C-2.4 -1.3 -1.2 -2.5 0.1 -2.5C1.3 -2.5 2.6 -1.3 2.6 0Z" fill="#fff5b2"></path></g><g transform="translate(1335 310)"><path d="M9.5 0C9.5 4.4 4.7 8.8 0 8.8C-4.7 8.8 -9.4 4.4 -9.4 0C-9.4 -4.4 -4.7 -8.8 0 -8.8C4.7 -8.8 9.5 -4.4 9.5 0Z" fill="#fff5b2"></path></g><g transform="translate(712 453)"><path d="M10.5 0.1C10.5 4.9 5.3 9.7 0 9.7C-5.2 9.7 -10.4 4.9 -10.4 0.1C-10.4 -4.7 -5.2 -9.5 0 -9.5C5.3 -9.5 10.5 -4.7 10.5 0.1Z" fill="#fff5b2"></path></g><g transform="translate(256 1074)"><path d="M9.1 0.2C9.1 5 4.5 9.9 -0.1 9.9C-4.8 9.9 -9.6 5 -9.6 0.2C-9.6 -4.5 -4.8 -8.9 -0.1 -8.9C4.5 -8.9 9.1 -4.5 9.1 0.2Z" fill="#fff5b2"></path></g><g transform="translate(1567 312)"><path d="M13.6 0.1C13.6 6.4 6.8 12.8 0.2 12.8C-6.5 12.8 -12.9 6.4 -12.9 0.1C-12.9 -6.2 -6.5 -12.4 0.2 -12.4C6.8 -12.4 13.6 -6.2 13.6 0.1Z" fill="#fff5b2"></path></g><g transform="translate(1742 17)"><path d="M8.4 -0.3C8.4 4.1 4.2 8.2 0 8.2C-4.3 8.2 -8.6 4.1 -8.6 -0.3C-8.6 -4.6 -4.3 -9.2 0 -9.2C4.2 -9.2 8.4 -4.6 8.4 -0.3Z" fill="#fff5b2"></path></g><g transform="translate(1557 757)"><path d="M9.8 0C9.8 4.9 4.9 9.9 0 9.9C-5 9.9 -9.9 4.9 -9.9 0C-9.9 -4.9 -5 -9.7 0 -9.7C4.9 -9.7 9.8 -4.9 9.8 0Z" fill="#fff5b2"></path></g><g transform="translate(1495 197)"><path d="M4.1 0.1C4.1 2.3 2.1 4.6 -0.1 4.6C-2.3 4.6 -4.6 2.3 -4.6 0.1C-4.6 -2.1 -2.3 -4.2 -0.1 -4.2C2.1 -4.2 4.1 -2.1 4.1 0.1Z" fill="#fff5b2"></path></g><g transform="translate(1901 819)"><path d="M11.2 0.1C11.2 6 5.6 12 -0.1 12C-5.8 12 -11.5 6 -11.5 0.1C-11.5 -5.7 -5.8 -11.4 -0.1 -11.4C5.6 -11.4 11.2 -5.7 11.2 0.1Z" fill="#fff5b2"></path></g><g transform="translate(79 272)"><path d="M2.6 0C2.6 1.3 1.3 2.6 0 2.6C-1.2 2.6 -2.5 1.3 -2.5 0C-2.5 -1.2 -1.2 -2.4 0 -2.4C1.3 -2.4 2.6 -1.2 2.6 0Z" fill="#fff5b2"></path></g><g transform="translate(1409 126)"><path d="M8.2 -0.1C8.2 4.2 4.1 8.4 0 8.4C-4 8.4 -8 4.2 -8 -0.1C-8 -4.3 -4 -8.7 0 -8.7C4.1 -8.7 8.2 -4.3 8.2 -0.1Z" fill="#fff5b2"></path></g><g transform="translate(634 999)"><path d="M4.1 -0.1C4.1 2.1 2.1 4.1 0 4.1C-2.2 4.1 -4.3 2.1 -4.3 -0.1C-4.3 -2.3 -2.2 -4.6 0 -4.6C2.1 -4.6 4.1 -2.3 4.1 -0.1Z" fill="#fff5b2"></path></g><g transform="translate(1380 360)"><path d="M12.1 -0.1C12.1 6 6 11.9 0 11.9C-6 11.9 -12 6 -12 -0.1C-12 -6.2 -6 -12.4 0 -12.4C6 -12.4 12.1 -6.2 12.1 -0.1Z" fill="#fff5b2"></path></g><g transform="translate(1120 506)"><path d="M8.4 0.2C8.4 4.7 4.2 9.3 -0.2 9.3C-4.6 9.3 -9.1 4.7 -9.1 0.2C-9.1 -4.2 -4.6 -8.4 -0.2 -8.4C4.2 -8.4 8.4 -4.2 8.4 0.2Z" fill="#fff5b2"></path></g><g transform="translate(1224 738)"><path d="M13.4 0.1C13.4 6.6 6.7 13.3 -0.1 13.3C-7 13.3 -14 6.6 -14 0.1C-14 -6.4 -7 -12.8 -0.1 -12.8C6.7 -12.8 13.4 -6.4 13.4 0.1Z" fill="#fff5b2"></path></g><g transform="translate(1828 917)"><path d="M5.7 0C5.7 2.7 2.9 5.4 0 5.4C-2.9 5.4 -5.8 2.7 -5.8 0C-5.8 -2.7 -2.9 -5.4 0 -5.4C2.9 -5.4 5.7 -2.7 5.7 0Z" fill="#fff5b2"></path></g><g transform="translate(1283 1061)"><path d="M14.3 -0.2C14.3 7.3 7.1 14.6 -0.4 14.6C-8 14.6 -15.9 7.3 -15.9 -0.2C-15.9 -7.8 -8 -15.5 -0.4 -15.5C7.1 -15.5 14.3 -7.8 14.3 -0.2Z" fill="#fff5b2"></path></g><g transform="translate(1625 891)"><path d="M6.5 0.1C6.5 3.2 3.3 6.3 0.1 6.3C-3 6.3 -6 3.2 -6 0.1C-6 -3 -3 -6 0.1 -6C3.3 -6 6.5 -3 6.5 0.1Z" fill="#fff5b2"></path></g><g transform="translate(1553 16)"><path d="M13 0.1C13 6.3 6.5 12.6 0.1 12.6C-6.3 12.6 -12.5 6.3 -12.5 0.1C-12.5 -6.1 -6.3 -12.2 0.1 -12.2C6.5 -12.2 13 -6.1 13 0.1Z" fill="#fff5b2"></path></g><g transform="translate(1808 778)"><path d="M1.9 0C1.9 0.9 0.9 1.8 0 1.8C-0.9 1.8 -1.9 0.9 -1.9 0C-1.9 -0.9 -0.9 -1.8 0 -1.8C0.9 -1.8 1.9 -0.9 1.9 0Z" fill="#fff5b2"></path></g><g transform="translate(1546 254)"><path d="M9.8 0C9.8 4.8 4.9 9.7 0 9.7C-5 9.7 -9.9 4.8 -9.9 0C-9.9 -4.8 -5 -9.7 0 -9.7C4.9 -9.7 9.8 -4.8 9.8 0Z" fill="#fff5b2"></path></g><g transform="translate(391 896)"><path d="M15.1 -0.3C15.1 7.3 7.5 14.5 0.2 14.5C-7.2 14.5 -14.4 7.3 -14.4 -0.3C-14.4 -7.8 -7.2 -15.6 0.2 -15.6C7.5 -15.6 15.1 -7.8 15.1 -0.3Z" fill="#fff5b2"></path></g><g transform="translate(290 188)"><path d="M4.7 0C4.7 2.5 2.4 5 -0.1 5C-2.5 5 -4.9 2.5 -4.9 0C-4.9 -2.6 -2.5 -5.2 -0.1 -5.2C2.4 -5.2 4.7 -2.6 4.7 0Z" fill="#fff5b2"></path></g><g transform="translate(676 255)"><path d="M7.7 0.1C7.7 4.1 3.9 8.2 -0.2 8.2C-4.2 8.2 -8.4 4.1 -8.4 0.1C-8.4 -3.9 -4.2 -7.8 -0.2 -7.8C3.9 -7.8 7.7 -3.9 7.7 0.1Z" fill="#fff5b2"></path></g><g transform="translate(1159 385)"><path d="M6.6 -0.1C6.6 3.5 3.3 7 -0.1 7C-3.5 7 -6.9 3.5 -6.9 -0.1C-6.9 -3.7 -3.5 -7.3 -0.1 -7.3C3.3 -7.3 6.6 -3.7 6.6 -0.1Z" fill="#fff5b2"></path></g><g transform="translate(220 421)"><path d="M12.9 0.4C12.9 6.6 6.4 13.3 0.1 13.3C-6.2 13.3 -12.4 6.6 -12.4 0.4C-12.4 -5.9 -6.2 -11.8 0.1 -11.8C6.4 -11.8 12.9 -5.9 12.9 0.4Z" fill="#fff5b2"></path></g><g transform="translate(288 581)"><path d="M5 0C5 2.6 2.5 5.2 0 5.2C-2.5 5.2 -5 2.6 -5 0C-5 -2.5 -2.5 -5.1 0 -5.1C2.5 -5.1 5 -2.5 5 0Z" fill="#fff5b2"></path></g><g transform="translate(1323 361)"><path d="M15.1 0C15.1 7.5 7.6 15 0.2 15C-7.1 15 -14.2 7.5 -14.2 0C-14.2 -7.6 -7.1 -15.1 0.2 -15.1C7.6 -15.1 15.1 -7.6 15.1 0Z" fill="#fff5b2"></path></g><g transform="translate(1788 979)"><path d="M2.5 0C2.5 1.2 1.2 2.4 0 2.4C-1.3 2.4 -2.5 1.2 -2.5 0C-2.5 -1.2 -1.3 -2.4 0 -2.4C1.2 -2.4 2.5 -1.2 2.5 0Z" fill="#fff5b2"></path></g><g transform="translate(365 37)"><path d="M3.5 0C3.5 1.9 1.8 3.9 0 3.9C-1.8 3.9 -3.6 1.9 -3.6 0C-3.6 -2 -1.8 -4 0 -4C1.8 -4 3.5 -2 3.5 0Z" fill="#fff5b2"></path></g><g transform="translate(161 996)"><path d="M7.3 0C7.3 3.5 3.6 6.9 0.1 6.9C-3.4 6.9 -6.7 3.5 -6.7 0C-6.7 -3.5 -3.4 -7 0.1 -7C3.6 -7 7.3 -3.5 7.3 0Z" fill="#fff5b2"></path></g><g transform="translate(9 895)"><path d="M6.5 -0.1C6.5 3.1 3.3 6.3 0.2 6.3C-2.9 6.3 -5.9 3.1 -5.9 -0.1C-5.9 -3.3 -2.9 -6.6 0.2 -6.6C3.3 -6.6 6.5 -3.3 6.5 -0.1Z" fill="#fff5b2"></path></g><g transform="translate(1645 956)"><path d="M13.3 -0.3C13.3 6.8 6.7 13.6 -0.3 13.6C-7.3 13.6 -14.5 6.8 -14.5 -0.3C-14.5 -7.3 -7.3 -14.6 -0.3 -14.6C6.7 -14.6 13.3 -7.3 13.3 -0.3Z" fill="#fff5b2"></path></g><g transform="translate(296 959)"><path d="M11.7 0.2C11.7 6.4 5.8 12.8 -0.3 12.8C-6.5 12.8 -13 6.4 -13 0.2C-13 -6 -6.5 -12 -0.3 -12C5.8 -12 11.7 -6 11.7 0.2Z" fill="#fff5b2"></path></g><g transform="translate(15 485)"><path d="M9.3 0C9.3 4.3 4.6 8.5 0.1 8.5C-4.5 8.5 -8.9 4.3 -8.9 0C-8.9 -4.2 -4.5 -8.5 0.1 -8.5C4.6 -8.5 9.3 -4.2 9.3 0Z" fill="#fff5b2"></path></g><g transform="translate(582 3)"><path d="M3 0C3 1.6 1.5 3.2 -0.1 3.2C-1.7 3.2 -3.3 1.6 -3.3 0C-3.3 -1.6 -1.7 -3.2 -0.1 -3.2C1.5 -3.2 3 -1.6 3 0Z" fill="#fff5b2"></path></g><g transform="translate(1394 820)"><path d="M2.4 0C2.4 1.2 1.2 2.5 0 2.5C-1.2 2.5 -2.5 1.2 -2.5 0C-2.5 -1.2 -1.2 -2.4 0 -2.4C1.2 -2.4 2.4 -1.2 2.4 0Z" fill="#fff5b2"></path></g><g transform="translate(3 964)"><path d="M2.5 0.1C2.5 1.3 1.3 2.7 0 2.7C-1.3 2.7 -2.6 1.3 -2.6 0.1C-2.6 -1.2 -1.3 -2.4 0 -2.4C1.3 -2.4 2.5 -1.2 2.5 0.1Z" fill="#fff5b2"></path></g><g transform="translate(30 26)"><path d="M4.3 0C4.3 2.1 2.2 4.3 0 4.3C-2.1 4.3 -4.2 2.1 -4.2 0C-4.2 -2.2 -2.1 -4.4 0 -4.4C2.2 -4.4 4.3 -2.2 4.3 0Z" fill="#fff5b2"></path></g><g transform="translate(840 585)"><path d="M3.1 0C3.1 1.6 1.6 3.3 0 3.3C-1.6 3.3 -3.2 1.6 -3.2 0C-3.2 -1.6 -1.6 -3.2 0 -3.2C1.6 -3.2 3.1 -1.6 3.1 0Z" fill="#fff5b2"></path></g><g transform="translate(283 270)"><path d="M7.7 0C7.7 4 3.9 8 -0.1 8C-4 8 -7.9 4 -7.9 0C-7.9 -4 -4 -7.9 -0.1 -7.9C3.9 -7.9 7.7 -4 7.7 0Z" fill="#fff5b2"></path></g><g transform="translate(979 356)"><path d="M9.6 0.1C9.6 5.3 4.8 10.6 -0.2 10.6C-5.2 10.6 -10.3 5.3 -10.3 0.1C-10.3 -5 -5.2 -10.1 -0.2 -10.1C4.8 -10.1 9.6 -5 9.6 0.1Z" fill="#fff5b2"></path></g><g transform="translate(1576 655)"><path d="M6.1 -0.1C6.1 3.1 3.1 6.2 -0.1 6.2C-3.3 6.2 -6.5 3.1 -6.5 -0.1C-6.5 -3.3 -3.3 -6.5 -0.1 -6.5C3.1 -6.5 6.1 -3.3 6.1 -0.1Z" fill="#fff5b2"></path></g><g transform="translate(162 242)"><path d="M5.1 0C5.1 2.5 2.6 4.9 0 4.9C-2.6 4.9 -5.2 2.5 -5.2 0C-5.2 -2.4 -2.6 -4.8 0 -4.8C2.6 -4.8 5.1 -2.4 5.1 0Z" fill="#fff5b2"></path></g><g transform="translate(1231 1008)"><path d="M4.8 0C4.8 2.5 2.4 5 -0.1 5C-2.6 5 -5.3 2.5 -5.3 0C-5.3 -2.5 -2.6 -5 -0.1 -5C2.4 -5 4.8 -2.5 4.8 0Z" fill="#fff5b2"></path></g><g transform="translate(604 815)"><path d="M7.8 0.2C7.8 4.3 3.9 8.5 0 8.5C-3.9 8.5 -7.8 4.3 -7.8 0.2C-7.8 -3.8 -3.9 -7.7 0 -7.7C3.9 -7.7 7.8 -3.8 7.8 0.2Z" fill="#fff5b2"></path></g><g transform="translate(1825 167)"><path d="M10.4 0.2C10.4 5.3 5.2 10.7 0.1 10.7C-5 10.7 -10 5.3 -10 0.2C-10 -5 -5 -10 0.1 -10C5.2 -10 10.4 -5 10.4 0.2Z" fill="#fff5b2"></path></g><g transform="translate(1422 528)"><path d="M8.9 0C8.9 4.5 4.5 9.1 0 9.1C-4.4 9.1 -8.9 4.5 -8.9 0C-8.9 -4.6 -4.4 -9.2 0 -9.2C4.5 -9.2 8.9 -4.6 8.9 0Z" fill="#fff5b2"></path></g><g transform="translate(33 1007)"><path d="M15.3 0C15.3 7.2 7.6 14.4 0.2 14.4C-7.3 14.4 -14.6 7.2 -14.6 0C-14.6 -7.3 -7.3 -14.5 0.2 -14.5C7.6 -14.5 15.3 -7.3 15.3 0Z" fill="#fff5b2"></path></g><g transform="translate(647 486)"><path d="M6.4 0.1C6.4 3.2 3.2 6.5 0 6.5C-3.1 6.5 -6.3 3.2 -6.3 0.1C-6.3 -3 -3.1 -6.1 0 -6.1C3.2 -6.1 6.4 -3 6.4 0.1Z" fill="#fff5b2"></path></g><g transform="translate(1010 73)"><path d="M8.9 0.1C8.9 5 4.4 10 -0.1 10C-4.6 10 -9.1 5 -9.1 0.1C-9.1 -4.8 -4.6 -9.5 -0.1 -9.5C4.4 -9.5 8.9 -4.8 8.9 0.1Z" fill="#fff5b2"></path></g><g transform="translate(1407 903)"><path d="M5.3 0C5.3 2.9 2.7 5.7 0 5.7C-2.8 5.7 -5.5 2.9 -5.5 0C-5.5 -2.8 -2.8 -5.6 0 -5.6C2.7 -5.6 5.3 -2.8 5.3 0Z" fill="#fff5b2"></path></g><g transform="translate(6 1067)"><path d="M11.3 0C11.3 5.7 5.6 11.4 -0.2 11.4C-5.9 11.4 -11.9 5.7 -11.9 0C-11.9 -5.8 -5.9 -11.6 -0.2 -11.6C5.6 -11.6 11.3 -5.8 11.3 0Z" fill="#fff5b2"></path></g><g transform="translate(1372 739)"><path d="M13.9 -0.1C13.9 6.6 6.9 13.1 0.2 13.1C-6.6 13.1 -13.1 6.6 -13.1 -0.1C-13.1 -6.8 -6.6 -13.5 0.2 -13.5C6.9 -13.5 13.9 -6.8 13.9 -0.1Z" fill="#fff5b2"></path></g><g transform="translate(1783 289)"><path d="M6.6 -0.1C6.6 3 3.3 6 0 6C-3.3 6 -6.6 3 -6.6 -0.1C-6.6 -3.2 -3.3 -6.3 0 -6.3C3.3 -6.3 6.6 -3.2 6.6 -0.1Z" fill="#fff5b2"></path></g><g transform="translate(1196 287)"><path d="M15 0.2C15 7.3 7.5 14.7 0.1 14.7C-7.3 14.7 -14.6 7.3 -14.6 0.2C-14.6 -7 -7.3 -14 0.1 -14C7.5 -14 15 -7 15 0.2Z" fill="#fff5b2"></path></g><g transform="translate(1072 870)"><path d="M8.9 0C8.9 4.5 4.5 9 0.1 9C-4.2 9 -8.3 4.5 -8.3 0C-8.3 -4.6 -4.2 -9.1 0.1 -9.1C4.5 -9.1 8.9 -4.6 8.9 0Z" fill="#fff5b2"></path></g><g transform="translate(790 135)"><path d="M14.1 0.2C14.1 7.6 7.1 15.1 -0.4 15.1C-7.9 15.1 -15.7 7.6 -15.7 0.2C-15.7 -7.1 -7.9 -14.2 -0.4 -14.2C7.1 -14.2 14.1 -7.1 14.1 0.2Z" fill="#fff5b2"></path></g><g transform="translate(119 486)"><path d="M4.1 0C4.1 2.2 2.1 4.4 0 4.4C-2.1 4.4 -4.2 2.2 -4.2 0C-4.2 -2.2 -2.1 -4.3 0 -4.3C2.1 -4.3 4.1 -2.2 4.1 0Z" fill="#fff5b2"></path></g><g transform="translate(1187 521)"><path d="M3.1 -0.1C3.1 1.5 1.5 2.9 0 2.9C-1.6 2.9 -3.2 1.5 -3.2 -0.1C-3.2 -1.6 -1.6 -3.2 0 -3.2C1.5 -3.2 3.1 -1.6 3.1 -0.1Z" fill="#fff5b2"></path></g><g transform="translate(1376 572)"><path d="M11.8 0.1C11.8 6 5.9 11.9 0.1 11.9C-5.8 11.9 -11.5 6 -11.5 0.1C-11.5 -5.7 -5.8 -11.4 0.1 -11.4C5.9 -11.4 11.8 -5.7 11.8 0.1Z" fill="#fff5b2"></path></g><g transform="translate(256 517)"><path d="M11.7 0C11.7 5.6 5.8 11.1 0 11.1C-5.9 11.1 -11.9 5.6 -11.9 0C-11.9 -5.5 -5.9 -11 0 -11C5.8 -11 11.7 -5.5 11.7 0Z" fill="#fff5b2"></path></g><g transform="translate(1648 249)"><path d="M5.9 0.1C5.9 2.8 3 5.5 0.1 5.5C-2.8 5.5 -5.6 2.8 -5.6 0.1C-5.6 -2.6 -2.8 -5.3 0.1 -5.3C3 -5.3 5.9 -2.6 5.9 0.1Z" fill="#fff5b2"></path></g><g transform="translate(306 1040)"><path d="M11.8 -0.1C11.8 5.3 5.9 10.7 0 10.7C-5.8 10.7 -11.7 5.3 -11.7 -0.1C-11.7 -5.5 -5.8 -10.9 0 -10.9C5.9 -10.9 11.8 -5.5 11.8 -0.1Z" fill="#fff5b2"></path></g><g transform="translate(492 755)"><path d="M13.1 0C13.1 6.7 6.6 13.4 0.1 13.4C-6.5 13.4 -12.9 6.7 -12.9 0C-12.9 -6.6 -6.5 -13.2 0.1 -13.2C6.6 -13.2 13.1 -6.6 13.1 0Z" fill="#fff5b2"></path></g><g transform="translate(729 1019)"><path d="M12.9 0.2C12.9 7.2 6.5 14.3 0 14.3C-6.5 14.3 -13.1 7.2 -13.1 0.2C-13.1 -6.8 -6.5 -13.5 0 -13.5C6.5 -13.5 12.9 -6.8 12.9 0.2Z" fill="#fff5b2"></path></g><g transform="translate(1851 1067)"><path d="M5.9 -0.1C5.9 2.7 2.9 5.5 0 5.5C-2.9 5.5 -5.9 2.7 -5.9 -0.1C-5.9 -2.9 -2.9 -5.7 0 -5.7C2.9 -5.7 5.9 -2.9 5.9 -0.1Z" fill="#fff5b2"></path></g><g transform="translate(1316 3)"><path d="M5.3 0C5.3 2.9 2.7 5.8 0 5.8C-2.7 5.8 -5.3 2.9 -5.3 0C-5.3 -2.8 -2.7 -5.7 0 -5.7C2.7 -5.7 5.3 -2.8 5.3 0Z" fill="#fff5b2"></path></g><g transform="translate(1062 746)"><path d="M11.6 0.1C11.6 5.9 5.8 11.7 0.1 11.7C-5.7 11.7 -11.3 5.9 -11.3 0.1C-11.3 -5.6 -5.7 -11.2 0.1 -11.2C5.8 -11.2 11.6 -5.6 11.6 0.1Z" fill="#fff5b2"></path></g><g transform="translate(515 981)"><path d="M11 -0.1C11 5.1 5.5 10.3 0.1 10.3C-5.2 10.3 -10.5 5.1 -10.5 -0.1C-10.5 -5.3 -5.2 -10.7 0.1 -10.7C5.5 -10.7 11 -5.3 11 -0.1Z" fill="#fff5b2"></path></g><g transform="translate(1283 306)"><path d="M3.3 0C3.3 1.6 1.7 3.1 0.1 3.1C-1.5 3.1 -2.9 1.6 -2.9 0C-2.9 -1.5 -1.5 -3 0.1 -3C1.7 -3 3.3 -1.5 3.3 0Z" fill="#fff5b2"></path></g><g transform="translate(363 665)"><path d="M7.2 -0.1C7.2 3.3 3.6 6.5 0 6.5C-3.5 6.5 -7.1 3.3 -7.1 -0.1C-7.1 -3.4 -3.5 -6.8 0 -6.8C3.6 -6.8 7.2 -3.4 7.2 -0.1Z" fill="#fff5b2"></path></g><g transform="translate(352 931)"><path d="M11.8 0C11.8 6 5.9 12 -0.2 12C-6.2 12 -12.5 6 -12.5 0C-12.5 -6.1 -6.2 -12.2 -0.2 -12.2C5.9 -12.2 11.8 -6.1 11.8 0Z" fill="#fff5b2"></path></g><g transform="translate(1004 645)"><path d="M6.7 0C6.7 3.5 3.3 7 0 7C-3.3 7 -6.7 3.5 -6.7 0C-6.7 -3.4 -3.3 -6.8 0 -6.8C3.3 -6.8 6.7 -3.4 6.7 0Z" fill="#fff5b2"></path></g><g transform="translate(877 867)"><path d="M11.5 0C11.5 5.6 5.7 11.3 -0.1 11.3C-6 11.3 -12 5.6 -12 0C-12 -5.6 -6 -11.1 -0.1 -11.1C5.7 -11.1 11.5 -5.6 11.5 0Z" fill="#fff5b2"></path></g><g transform="translate(1267 807)"><path d="M15.1 -0.3C15.1 7.2 7.5 14.4 0.3 14.4C-7 14.4 -14.1 7.2 -14.1 -0.3C-14.1 -7.8 -7 -15.5 0.3 -15.5C7.5 -15.5 15.1 -7.8 15.1 -0.3Z" fill="#fff5b2"></path></g><g transform="translate(1492 318)"><path d="M2 0C2 1 1 1.9 0 1.9C-0.9 1.9 -1.8 1 -1.8 0C-1.8 -0.9 -0.9 -1.8 0 -1.8C1 -1.8 2 -0.9 2 0Z" fill="#fff5b2"></path></g><g transform="translate(85 124)"><path d="M14.2 -0.5C14.2 7 7.1 14 0 14C-7.1 14 -14.2 7 -14.2 -0.5C-14.2 -8 -7.1 -15.9 0 -15.9C7.1 -15.9 14.2 -8 14.2 -0.5Z" fill="#fff5b2"></path></g><g transform="translate(1561 600)"><path d="M7 -0.2C7 3.3 3.5 6.6 -0.1 6.6C-3.7 6.6 -7.3 3.3 -7.3 -0.2C-7.3 -3.6 -3.7 -7.3 -0.1 -7.3C3.5 -7.3 7 -3.6 7 -0.2Z" fill="#fff5b2"></path></g><g transform="translate(571 750)"><path d="M9.1 -0.1C9.1 4.7 4.6 9.4 -0.1 9.4C-4.7 9.4 -9.5 4.7 -9.5 -0.1C-9.5 -5 -4.7 -10 -0.1 -10C4.6 -10 9.1 -5 9.1 -0.1Z" fill="#fff5b2"></path></g><g transform="translate(765 19)"><path d="M15.7 0.4C15.7 7.8 7.9 15.6 0.3 15.6C-7.2 15.6 -14.5 7.8 -14.5 0.4C-14.5 -7 -7.2 -14 0.3 -14C7.9 -14 15.7 -7 15.7 0.4Z" fill="#fff5b2"></path></g><g transform="translate(1718 344)"><path d="M13.1 0C13.1 6.3 6.6 12.6 -0.1 12.6C-6.7 12.6 -13.4 6.3 -13.4 0C-13.4 -6.3 -6.7 -12.7 -0.1 -12.7C6.6 -12.7 13.1 -6.3 13.1 0Z" fill="#fff5b2"></path></g><g transform="translate(4 291)"><path d="M11.4 0C11.4 5.7 5.7 11.3 -0.1 11.3C-5.8 11.3 -11.7 5.7 -11.7 0C-11.7 -5.7 -5.8 -11.5 -0.1 -11.5C5.7 -11.5 11.4 -5.7 11.4 0Z" fill="#fff5b2"></path></g><g transform="translate(1341 430)"><path d="M11.2 0C11.2 5.8 5.6 11.7 -0.3 11.7C-6.2 11.7 -12.3 5.8 -12.3 0C-12.3 -5.8 -6.2 -11.6 -0.3 -11.6C5.6 -11.6 11.2 -5.8 11.2 0Z" fill="#fff5b2"></path></g><g transform="translate(1285 48)"><path d="M13.6 -0.1C13.6 6.2 6.8 12.5 0.3 12.5C-6.1 12.5 -12.3 6.2 -12.3 -0.1C-12.3 -6.5 -6.1 -13 0.3 -13C6.8 -13 13.6 -6.5 13.6 -0.1Z" fill="#fff5b2"></path></g><g transform="translate(1765 906)"><path d="M9.6 0.1C9.6 5 4.8 9.9 -0.1 9.9C-5 9.9 -9.9 5 -9.9 0.1C-9.9 -4.9 -5 -9.7 -0.1 -9.7C4.8 -9.7 9.6 -4.9 9.6 0.1Z" fill="#fff5b2"></path></g><g transform="translate(1531 361)"><path d="M14.7 -0.1C14.7 6.9 7.3 13.9 0.2 13.9C-7 13.9 -14 6.9 -14 -0.1C-14 -7.1 -7 -14.2 0.2 -14.2C7.3 -14.2 14.7 -7.1 14.7 -0.1Z" fill="#fff5b2"></path></g><g transform="translate(422 759)"><path d="M2.5 0C2.5 1.3 1.3 2.5 0 2.5C-1.3 2.5 -2.6 1.3 -2.6 0C-2.6 -1.3 -1.3 -2.6 0 -2.6C1.3 -2.6 2.5 -1.3 2.5 0Z" fill="#fff5b2"></path></g><g transform="translate(1107 375)"><path d="M14.1 -0.4C14.1 6.5 7.1 13 -0.1 13C-7.2 13 -14.5 6.5 -14.5 -0.4C-14.5 -7.3 -7.2 -14.5 -0.1 -14.5C7.1 -14.5 14.1 -7.3 14.1 -0.4Z" fill="#fff5b2"></path></g><g transform="translate(459 182)"><path d="M13.8 -0.3C13.8 6.7 6.9 13.4 -0.1 13.4C-7.1 13.4 -14.2 6.7 -14.2 -0.3C-14.2 -7.3 -7.1 -14.7 -0.1 -14.7C6.9 -14.7 13.8 -7.3 13.8 -0.3Z" fill="#fff5b2"></path></g><g transform="translate(1294 643)"><path d="M5.6 -0.1C5.6 2.8 2.8 5.5 0.1 5.5C-2.6 5.5 -5.3 2.8 -5.3 -0.1C-5.3 -2.9 -2.6 -5.8 0.1 -5.8C2.8 -5.8 5.6 -2.9 5.6 -0.1Z" fill="#fff5b2"></path></g><g transform="translate(985 1060)"><path d="M12.3 -0.1C12.3 6.2 6.1 12.4 -0.1 12.4C-6.4 12.4 -12.9 6.2 -12.9 -0.1C-12.9 -6.3 -6.4 -12.7 -0.1 -12.7C6.1 -12.7 12.3 -6.3 12.3 -0.1Z" fill="#fff5b2"></path></g><g transform="translate(65 522)"><path d="M2.9 0C2.9 1.6 1.5 3.1 -0.1 3.1C-1.6 3.1 -3.2 1.6 -3.2 0C-3.2 -1.5 -1.6 -3 -0.1 -3C1.5 -3 2.9 -1.5 2.9 0Z" fill="#fff5b2"></path></g><g transform="translate(381 841)"><path d="M3.8 0C3.8 1.8 1.9 3.6 0 3.6C-1.9 3.6 -3.8 1.8 -3.8 0C-3.8 -1.8 -1.9 -3.5 0 -3.5C1.9 -3.5 3.8 -1.8 3.8 0Z" fill="#fff5b2"></path></g><g transform="translate(634 304)"><path d="M10.9 0C10.9 5.5 5.4 10.9 0.2 10.9C-5 10.9 -9.9 5.5 -9.9 0C-9.9 -5.5 -5 -11 0.2 -11C5.4 -11 10.9 -5.5 10.9 0Z" fill="#fff5b2"></path></g><g transform="translate(1536 145)"><path d="M3.8 0C3.8 1.9 1.9 3.9 0 3.9C-1.9 3.9 -3.8 1.9 -3.8 0C-3.8 -1.8 -1.9 -3.7 0 -3.7C1.9 -3.7 3.8 -1.8 3.8 0Z" fill="#fff5b2"></path></g><g transform="translate(1145 643)"><path d="M14.4 0C14.4 7.1 7.2 14.2 0.1 14.2C-6.9 14.2 -13.8 7.1 -13.8 0C-13.8 -7 -6.9 -14 0.1 -14C7.2 -14 14.4 -7 14.4 0Z" fill="#fff5b2"></path></g><g transform="translate(756 619)"><path d="M15.4 0C15.4 7 7.7 14 0.1 14C-7.4 14 -14.9 7 -14.9 0C-14.9 -7.1 -7.4 -14.2 0.1 -14.2C7.7 -14.2 15.4 -7.1 15.4 0Z" fill="#fff5b2"></path></g><g transform="translate(1795 518)"><path d="M5.2 0C5.2 2.4 2.6 4.8 0.1 4.8C-2.5 4.8 -5 2.4 -5 0C-5 -2.5 -2.5 -5 0.1 -5C2.6 -5 5.2 -2.5 5.2 0Z" fill="#fff5b2"></path></g><g transform="translate(817 1079)"><path d="M8 0.2C8 4.2 4 8.4 -0.1 8.4C-4.1 8.4 -8.2 4.2 -8.2 0.2C-8.2 -3.8 -4.1 -7.7 -0.1 -7.7C4 -7.7 8 -3.8 8 0.2Z" fill="#fff5b2"></path></g><g transform="translate(1167 189)"><path d="M3.5 0C3.5 2 1.8 4 -0.1 4C-1.9 4 -3.9 2 -3.9 0C-3.9 -1.9 -1.9 -3.9 -0.1 -3.9C1.8 -3.9 3.5 -1.9 3.5 0Z" fill="#fff5b2"></path></g><g transform="translate(1643 328)"><path d="M9 -0.1C9 4.7 4.5 9.5 -0.2 9.5C-4.9 9.5 -9.7 4.7 -9.7 -0.1C-9.7 -4.9 -4.9 -9.9 -0.2 -9.9C4.5 -9.9 9 -4.9 9 -0.1Z" fill="#fff5b2"></path></g><g transform="translate(1078 1075)"><path d="M7.7 -0.2C7.7 3.5 3.9 7 0.2 7C-3.5 7 -7 3.5 -7 -0.2C-7 -3.9 -3.5 -7.8 0.2 -7.8C3.9 -7.8 7.7 -3.9 7.7 -0.2Z" fill="#fff5b2"></path></g><g transform="translate(1435 366)"><path d="M7.2 0C7.2 3.6 3.6 7.1 0 7.1C-3.5 7.1 -7.1 3.6 -7.1 0C-7.1 -3.5 -3.5 -6.9 0 -6.9C3.6 -6.9 7.2 -3.5 7.2 0Z" fill="#fff5b2"></path></g><g transform="translate(345 597)"><path d="M5.3 0.1C5.3 2.6 2.7 5.2 0.1 5.2C-2.5 5.2 -5 2.6 -5 0.1C-5 -2.5 -2.5 -4.9 0.1 -4.9C2.7 -4.9 5.3 -2.5 5.3 0.1Z" fill="#fff5b2"></path></g><g transform="translate(1675 502)"><path d="M1.8 0C1.8 0.9 0.9 1.8 0 1.8C-1 1.8 -2 0.9 -2 0C-2 -1 -1 -1.9 0 -1.9C0.9 -1.9 1.8 -1 1.8 0Z" fill="#fff5b2"></path></g><g transform="translate(1282 748)"><path d="M14 0.4C14 7 7 14 0.3 14C-6.4 14 -12.7 7 -12.7 0.4C-12.7 -6.2 -6.4 -12.4 0.3 -12.4C7 -12.4 14 -6.2 14 0.4Z" fill="#fff5b2"></path></g><g transform="translate(1388 487)"><path d="M5.3 0C5.3 2.7 2.6 5.3 -0.1 5.3C-2.9 5.3 -5.8 2.7 -5.8 0C-5.8 -2.7 -2.9 -5.4 -0.1 -5.4C2.6 -5.4 5.3 -2.7 5.3 0Z" fill="#fff5b2"></path></g><g transform="translate(637 579)"><path d="M12.8 0.1C12.8 7 6.4 13.9 0 13.9C-6.4 13.9 -12.9 7 -12.9 0.1C-12.9 -6.7 -6.4 -13.5 0 -13.5C6.4 -13.5 12.8 -6.7 12.8 0.1Z" fill="#fff5b2"></path></g><g transform="translate(1886 758)"><path d="M9.3 0C9.3 4.6 4.7 9.2 -0.1 9.2C-4.9 9.2 -9.9 4.6 -9.9 0C-9.9 -4.7 -4.9 -9.4 -0.1 -9.4C4.7 -9.4 9.3 -4.7 9.3 0Z" fill="#fff5b2"></path></g><g transform="translate(1254 255)"><path d="M6 0.2C6 3.3 3 6.5 0 6.5C-2.9 6.5 -5.9 3.3 -5.9 0.2C-5.9 -2.9 -2.9 -5.9 0 -5.9C3 -5.9 6 -2.9 6 0.2Z" fill="#fff5b2"></path></g><g transform="translate(1384 1026)"><path d="M8.8 -0.2C8.8 4.2 4.4 8.5 0 8.5C-4.4 8.5 -8.8 4.2 -8.8 -0.2C-8.8 -4.6 -4.4 -9.2 0 -9.2C4.4 -9.2 8.8 -4.6 8.8 -0.2Z" fill="#fff5b2"></path></g><g transform="translate(121 703)"><path d="M2.4 0C2.4 1.3 1.2 2.6 -0.1 2.6C-1.3 2.6 -2.6 1.3 -2.6 0C-2.6 -1.2 -1.3 -2.5 -0.1 -2.5C1.2 -2.5 2.4 -1.2 2.4 0Z" fill="#fff5b2"></path></g><g transform="translate(1428 771)"><path d="M15.3 0.1C15.3 7.7 7.6 15.5 0 15.5C-7.6 15.5 -15.2 7.7 -15.2 0.1C-15.2 -7.6 -7.6 -15.1 0 -15.1C7.6 -15.1 15.3 -7.6 15.3 0.1Z" fill="#fff5b2"></path></g><g transform="translate(1324 1019)"><path d="M4.1 -0.1C4.1 2.1 2.1 4.3 0 4.3C-2.2 4.3 -4.3 2.1 -4.3 -0.1C-4.3 -2.3 -2.2 -4.6 0 -4.6C2.1 -4.6 4.1 -2.3 4.1 -0.1Z" fill="#fff5b2"></path></g><g transform="translate(1225 899)"><path d="M4.1 0C4.1 2.2 2.1 4.5 -0.1 4.5C-2.3 4.5 -4.5 2.2 -4.5 0C-4.5 -2.2 -2.3 -4.4 -0.1 -4.4C2.1 -4.4 4.1 -2.2 4.1 0Z" fill="#fff5b2"></path></g><g transform="translate(922 804)"><path d="M8.1 -0.1C8.1 4.1 4.1 8.3 0 8.3C-4.1 8.3 -8.2 4.1 -8.2 -0.1C-8.2 -4.3 -4.1 -8.7 0 -8.7C4.1 -8.7 8.1 -4.3 8.1 -0.1Z" fill="#fff5b2"></path></g><g transform="translate(1157 1065)"><path d="M6.4 0.1C6.4 3.3 3.2 6.5 0 6.5C-3.2 6.5 -6.3 3.3 -6.3 0.1C-6.3 -3.1 -3.2 -6.2 0 -6.2C3.2 -6.2 6.4 -3.1 6.4 0.1Z" fill="#fff5b2"></path></g><g transform="translate(1287 541)"><path d="M12.8 0.2C12.8 6.5 6.4 13 0.3 13C-5.9 13 -11.7 6.5 -11.7 0.2C-11.7 -6.2 -5.9 -12.4 0.3 -12.4C6.4 -12.4 12.8 -6.2 12.8 0.2Z" fill="#fff5b2"></path></g><g transform="translate(78 904)"><path d="M3.1 0.1C3.1 1.6 1.6 3.2 0 3.2C-1.5 3.2 -3 1.6 -3 0.1C-3 -1.5 -1.5 -2.9 0 -2.9C1.6 -2.9 3.1 -1.5 3.1 0.1Z" fill="#fff5b2"></path></g><g transform="translate(1822 610)"><path d="M7.1 0.1C7.1 3.3 3.5 6.7 0 6.7C-3.5 6.7 -6.9 3.3 -6.9 0.1C-6.9 -3.2 -3.5 -6.4 0 -6.4C3.5 -6.4 7.1 -3.2 7.1 0.1Z" fill="#fff5b2"></path></g><g transform="translate(1114 268)"><path d="M5.4 0.1C5.4 2.9 2.7 5.9 0 5.9C-2.8 5.9 -5.5 2.9 -5.5 0.1C-5.5 -2.8 -2.8 -5.6 0 -5.6C2.7 -5.6 5.4 -2.8 5.4 0.1Z" fill="#fff5b2"></path></g><g transform="translate(1456 661)"><path d="M13.6 -0.2C13.6 6.3 6.8 12.6 0.2 12.6C-6.4 12.6 -12.7 6.3 -12.7 -0.2C-12.7 -6.7 -6.4 -13.4 0.2 -13.4C6.8 -13.4 13.6 -6.7 13.6 -0.2Z" fill="#fff5b2"></path></g><g transform="translate(978 9)"><path d="M14.4 -0.1C14.4 7.1 7.2 14.1 0.2 14.1C-6.9 14.1 -13.7 7.1 -13.7 -0.1C-13.7 -7.2 -6.9 -14.3 0.2 -14.3C7.2 -14.3 14.4 -7.2 14.4 -0.1Z" fill="#fff5b2"></path></g><g transform="translate(1583 1008)"><path d="M12 0.1C12 6 6 12 0.1 12C-5.8 12 -11.7 6 -11.7 0.1C-11.7 -5.7 -5.8 -11.4 0.1 -11.4C6 -11.4 12 -5.7 12 0.1Z" fill="#fff5b2"></path></g><g transform="translate(432 940)"><path d="M7.7 0.1C7.7 4.1 3.9 8.2 -0.1 8.2C-4.2 8.2 -8.3 4.1 -8.3 0.1C-8.3 -3.8 -4.2 -7.6 -0.1 -7.6C3.9 -7.6 7.7 -3.8 7.7 0.1Z" fill="#fff5b2"></path></g><g transform="translate(875 772)"><path d="M10.8 -0.1C10.8 5.6 5.4 11.2 -0.3 11.2C-5.9 11.2 -11.8 5.6 -11.8 -0.1C-11.8 -5.7 -5.9 -11.4 -0.3 -11.4C5.4 -11.4 10.8 -5.7 10.8 -0.1Z" fill="#fff5b2"></path></g><g transform="translate(1845 336)"><path d="M8.6 0.2C8.6 4.6 4.3 9.1 0 9.1C-4.4 9.1 -8.8 4.6 -8.8 0.2C-8.8 -4.3 -4.4 -8.5 0 -8.5C4.3 -8.5 8.6 -4.3 8.6 0.2Z" fill="#fff5b2"></path></g><g transform="translate(221 737)"><path d="M10.5 0C10.5 4.7 5.2 9.4 0.3 9.4C-4.7 9.4 -9.5 4.7 -9.5 0C-9.5 -4.7 -4.7 -9.4 0.3 -9.4C5.2 -9.4 10.5 -4.7 10.5 0Z" fill="#fff5b2"></path></g><g transform="translate(1501 1071)"><path d="M7.2 0C7.2 3.5 3.6 6.9 0.2 6.9C-3.3 6.9 -6.6 3.5 -6.6 0C-6.6 -3.5 -3.3 -7 0.2 -7C3.6 -7 7.2 -3.5 7.2 0Z" fill="#fff5b2"></path></g><g transform="translate(843 287)"><path d="M10.6 0.2C10.6 5 5.3 10.1 0.2 10.1C-4.8 10.1 -9.7 5 -9.7 0.2C-9.7 -4.7 -4.8 -9.5 0.2 -9.5C5.3 -9.5 10.6 -4.7 10.6 0.2Z" fill="#fff5b2"></path></g><g transform="translate(37 736)"><path d="M3 0C3 1.6 1.5 3.3 0 3.3C-1.5 3.3 -3 1.6 -3 0C-3 -1.6 -1.5 -3.1 0 -3.1C1.5 -3.1 3 -1.6 3 0Z" fill="#fff5b2"></path></g><g transform="translate(985 213)"><path d="M5.7 0.1C5.7 2.9 2.8 5.9 0.1 5.9C-2.7 5.9 -5.4 2.9 -5.4 0.1C-5.4 -2.7 -2.7 -5.5 0.1 -5.5C2.8 -5.5 5.7 -2.7 5.7 0.1Z" fill="#fff5b2"></path></g><g transform="translate(351 992)"><path d="M13.8 0.3C13.8 7.6 6.9 15.2 -0.3 15.2C-7.4 15.2 -14.8 7.6 -14.8 0.3C-14.8 -6.9 -7.4 -13.9 -0.3 -13.9C6.9 -13.9 13.8 -6.9 13.8 0.3Z" fill="#fff5b2"></path></g><g transform="translate(534 154)"><path d="M15.2 -0.2C15.2 7.2 7.6 14.5 -0.1 14.5C-7.8 14.5 -15.5 7.2 -15.5 -0.2C-15.5 -7.6 -7.8 -15.1 -0.1 -15.1C7.6 -15.1 15.2 -7.6 15.2 -0.2Z" fill="#fff5b2"></path></g><g transform="translate(529 14)"><path d="M11.7 0.1C11.7 6.3 5.9 12.6 -0.2 12.6C-6.2 12.6 -12.4 6.3 -12.4 0.1C-12.4 -6 -6.2 -12.1 -0.2 -12.1C5.9 -12.1 11.7 -6 11.7 0.1Z" fill="#fff5b2"></path></g><g transform="translate(456 522)"><path d="M12.4 0C12.4 6.3 6.2 12.6 0 12.6C-6.1 12.6 -12.3 6.3 -12.3 0C-12.3 -6.3 -6.1 -12.6 0 -12.6C6.2 -12.6 12.4 -6.3 12.4 0Z" fill="#fff5b2"></path></g><g transform="translate(405 588)"><path d="M3.2 0C3.2 1.5 1.6 3 0 3C-1.7 3 -3.3 1.5 -3.3 0C-3.3 -1.5 -1.7 -3.1 0 -3.1C1.6 -3.1 3.2 -1.5 3.2 0Z" fill="#fff5b2"></path></g><g transform="translate(792 360)"><path d="M10.8 0C10.8 5.6 5.4 11.2 0.1 11.2C-5.3 11.2 -10.5 5.6 -10.5 0C-10.5 -5.5 -5.3 -11 0.1 -11C5.4 -11 10.8 -5.5 10.8 0Z" fill="#fff5b2"></path></g><g transform="translate(4 76)"><path d="M13.7 0.1C13.7 6.6 6.9 13.2 0.3 13.2C-6.2 13.2 -12.4 6.6 -12.4 0.1C-12.4 -6.4 -6.2 -12.7 0.3 -12.7C6.9 -12.7 13.7 -6.4 13.7 0.1Z" fill="#fff5b2"></path></g><g transform="translate(908 454)"><path d="M5 0C5 2.4 2.5 4.8 0 4.8C-2.5 4.8 -5 2.4 -5 0C-5 -2.4 -2.5 -4.9 0 -4.9C2.5 -4.9 5 -2.4 5 0Z" fill="#fff5b2"></path></g><g transform="translate(1368 673)"><path d="M7.9 0.2C7.9 4.3 3.9 8.6 0 8.6C-3.9 8.6 -7.8 4.3 -7.8 0.2C-7.8 -3.9 -3.9 -7.8 0 -7.8C3.9 -7.8 7.9 -3.9 7.9 0.2Z" fill="#fff5b2"></path></g><g transform="translate(1374 201)"><path d="M3.5 -0.1C3.5 1.8 1.8 3.6 -0.1 3.6C-1.9 3.6 -3.9 1.8 -3.9 -0.1C-3.9 -2 -1.9 -3.9 -0.1 -3.9C1.8 -3.9 3.5 -2 3.5 -0.1Z" fill="#fff5b2"></path></g><g transform="translate(467 373)"><path d="M3 0C3 1.5 1.5 3.1 0 3.1C-1.5 3.1 -3 1.5 -3 0C-3 -1.6 -1.5 -3.2 0 -3.2C1.5 -3.2 3 -1.6 3 0Z" fill="#fff5b2"></path></g><g transform="translate(127 1075)"><path d="M11.1 0.2C11.1 5.8 5.5 11.6 0 11.6C-5.6 11.6 -11.2 5.8 -11.2 0.2C-11.2 -5.4 -5.6 -10.9 0 -10.9C5.5 -10.9 11.1 -5.4 11.1 0.2Z" fill="#fff5b2"></path></g><g transform="translate(409 63)"><path d="M13.6 -0.4C13.6 6.5 6.8 13 0.1 13C-6.5 13 -13 6.5 -13 -0.4C-13 -7.2 -6.5 -14.5 0.1 -14.5C6.8 -14.5 13.6 -7.2 13.6 -0.4Z" fill="#fff5b2"></path></g><g transform="translate(567 468)"><path d="M6.1 0C6.1 3.2 3 6.5 0 6.5C-3 6.5 -6.1 3.2 -6.1 0C-6.1 -3.3 -3 -6.5 0 -6.5C3 -6.5 6.1 -3.3 6.1 0Z" fill="#fff5b2"></path></g><g transform="translate(150 594)"><path d="M3.6 0C3.6 1.9 1.8 3.8 -0.1 3.8C-2 3.8 -3.9 1.9 -3.9 0C-3.9 -2 -2 -3.9 -0.1 -3.9C1.8 -3.9 3.6 -2 3.6 0Z" fill="#fff5b2"></path></g><g transform="translate(740 674)"><path d="M15.8 0.3C15.8 7.7 7.9 15.4 0.3 15.4C-7.3 15.4 -14.6 7.7 -14.6 0.3C-14.6 -7.2 -7.3 -14.3 0.3 -14.3C7.9 -14.3 15.8 -7.2 15.8 0.3Z" fill="#fff5b2"></path></g><g transform="translate(1641 1024)"><path d="M9.9 -0.3C9.9 4.4 4.9 8.8 0.2 8.8C-4.6 8.8 -9.2 4.4 -9.2 -0.3C-9.2 -4.9 -4.6 -9.8 0.2 -9.8C4.9 -9.8 9.9 -4.9 9.9 -0.3Z" fill="#fff5b2"></path></g><g transform="translate(124 51)"><path d="M14.9 0.1C14.9 7.3 7.4 14.7 -0.1 14.7C-7.5 14.7 -15.1 7.3 -15.1 0.1C-15.1 -7.1 -7.5 -14.2 -0.1 -14.2C7.4 -14.2 14.9 -7.1 14.9 0.1Z" fill="#fff5b2"></path></g><g transform="translate(841 418)"><path d="M6.6 0C6.6 3.3 3.3 6.7 0 6.7C-3.4 6.7 -6.8 3.3 -6.8 0C-6.8 -3.4 -3.4 -6.7 0 -6.7C3.3 -6.7 6.6 -3.4 6.6 0Z" fill="#fff5b2"></path></g><g transform="translate(1701 790)"><path d="M9.7 0C9.7 4.7 4.8 9.4 0.2 9.4C-4.4 9.4 -8.8 4.7 -8.8 0C-8.8 -4.6 -4.4 -9.3 0.2 -9.3C4.8 -9.3 9.7 -4.6 9.7 0Z" fill="#fff5b2"></path></g><g transform="translate(820 771)"><path d="M6 0C6 2.7 3 5.4 0.1 5.4C-2.8 5.4 -5.6 2.7 -5.6 0C-5.6 -2.7 -2.8 -5.4 0.1 -5.4C3 -5.4 6 -2.7 6 0Z" fill="#fff5b2"></path></g><g transform="translate(272 467)"><path d="M11.1 0.2C11.1 5.7 5.5 11.4 0 11.4C-5.5 11.4 -11.1 5.7 -11.1 0.2C-11.1 -5.3 -5.5 -10.6 0 -10.6C5.5 -10.6 11.1 -5.3 11.1 0.2Z" fill="#fff5b2"></path></g><g transform="translate(335 293)"><path d="M3.1 0.1C3.1 1.7 1.5 3.3 0 3.3C-1.5 3.3 -3.1 1.7 -3.1 0.1C-3.1 -1.6 -1.5 -3.1 0 -3.1C1.5 -3.1 3.1 -1.6 3.1 0.1Z" fill="#fff5b2"></path></g><g transform="translate(1594 718)"><path d="M7.1 0.1C7.1 3.4 3.6 6.8 0 6.8C-3.6 6.8 -7.1 3.4 -7.1 0.1C-7.1 -3.2 -3.6 -6.5 0 -6.5C3.6 -6.5 7.1 -3.2 7.1 0.1Z" fill="#fff5b2"></path></g><g transform="translate(328 365)"><path d="M14.3 -0.1C14.3 7.1 7.2 14.3 0.2 14.3C-6.7 14.3 -13.4 7.1 -13.4 -0.1C-13.4 -7.3 -6.7 -14.6 0.2 -14.6C7.2 -14.6 14.3 -7.3 14.3 -0.1Z" fill="#fff5b2"></path></g><g transform="translate(1285 983)"><path d="M15.4 -0.2C15.4 7.4 7.7 14.8 0.1 14.8C-7.5 14.8 -15 7.4 -15 -0.2C-15 -7.8 -7.5 -15.6 0.1 -15.6C7.7 -15.6 15.4 -7.8 15.4 -0.2Z" fill="#fff5b2"></path></g><g transform="translate(1806 1035)"><path d="M4.1 0C4.1 2.1 2 4.2 0 4.2C-2.1 4.2 -4.1 2.1 -4.1 0C-4.1 -2.2 -2.1 -4.3 0 -4.3C2 -4.3 4.1 -2.2 4.1 0Z" fill="#fff5b2"></path></g><g transform="translate(880 130)"><path d="M7.8 -0.1C7.8 3.7 3.9 7.4 0.1 7.4C-3.7 7.4 -7.5 3.7 -7.5 -0.1C-7.5 -4 -3.7 -8 0.1 -8C3.9 -8 7.8 -4 7.8 -0.1Z" fill="#fff5b2"></path></g><g transform="translate(1772 236)"><path d="M1.9 0C1.9 0.9 0.9 1.8 0 1.8C-0.9 1.8 -1.8 0.9 -1.8 0C-1.8 -0.9 -0.9 -1.8 0 -1.8C0.9 -1.8 1.9 -0.9 1.9 0Z" fill="#fff5b2"></path></g><g transform="translate(261 845)"><path d="M7.5 0.1C7.5 3.7 3.7 7.4 -0.1 7.4C-4 7.4 -8 3.7 -8 0.1C-8 -3.5 -4 -7.1 -0.1 -7.1C3.7 -7.1 7.5 -3.5 7.5 0.1Z" fill="#fff5b2"></path></g><g transform="translate(699 302)"><path d="M5.5 0C5.5 2.9 2.8 5.8 0 5.8C-2.7 5.8 -5.4 2.9 -5.4 0C-5.4 -2.9 -2.7 -5.8 0 -5.8C2.8 -5.8 5.5 -2.9 5.5 0Z" fill="#fff5b2"></path></g><g transform="translate(927 35)"><path d="M8 0C8 3.7 4 7.3 0.2 7.3C-3.6 7.3 -7.2 3.7 -7.2 0C-7.2 -3.7 -3.6 -7.4 0.2 -7.4C4 -7.4 8 -3.7 8 0Z" fill="#fff5b2"></path></g><g transform="translate(1648 389)"><path d="M9 0C9 4.6 4.5 9.3 0.1 9.3C-4.4 9.3 -8.7 4.6 -8.7 0C-8.7 -4.6 -4.4 -9.2 0.1 -9.2C4.5 -9.2 9 -4.6 9 0Z" fill="#fff5b2"></path></g><g transform="translate(1224 845)"><path d="M9 -0.1C9 4.1 4.5 8.2 0.2 8.2C-4.1 8.2 -8.3 4.1 -8.3 -0.1C-8.3 -4.3 -4.1 -8.7 0.2 -8.7C4.5 -8.7 9 -4.3 9 -0.1Z" fill="#fff5b2"></path></g><g transform="translate(1397 964)"><path d="M9.3 0.1C9.3 4.6 4.6 9.1 0.2 9.1C-4.2 9.1 -8.4 4.6 -8.4 0.1C-8.4 -4.5 -4.2 -8.9 0.2 -8.9C4.6 -8.9 9.3 -4.5 9.3 0.1Z" fill="#fff5b2"></path></g><g transform="translate(720 45)"><path d="M6.9 0C6.9 3.3 3.4 6.6 0 6.6C-3.4 6.6 -6.8 3.3 -6.8 0C-6.8 -3.3 -3.4 -6.5 0 -6.5C3.4 -6.5 6.9 -3.3 6.9 0Z" fill="#fff5b2"></path></g><g transform="translate(460 76)"><path d="M8.9 -0.1C8.9 4.4 4.5 8.8 0 8.8C-4.4 8.8 -8.8 4.4 -8.8 -0.1C-8.8 -4.5 -4.4 -9 0 -9C4.5 -9 8.9 -4.5 8.9 -0.1Z" fill="#fff5b2"></path></g><g transform="translate(1480 809)"><path d="M14.9 -0.3C14.9 6.9 7.5 13.8 0.3 13.8C-6.9 13.8 -13.8 6.9 -13.8 -0.3C-13.8 -7.5 -6.9 -15 0.3 -15C7.5 -15 14.9 -7.5 14.9 -0.3Z" fill="#fff5b2"></path></g><g transform="translate(1863 644)"><path d="M6.3 0.1C6.3 3.2 3.1 6.5 0 6.5C-3.2 6.5 -6.4 3.2 -6.4 0.1C-6.4 -3.1 -3.2 -6.3 0 -6.3C3.1 -6.3 6.3 -3.1 6.3 0.1Z" fill="#fff5b2"></path></g><g transform="translate(1333 804)"><path d="M7.7 0C7.7 4 3.9 8 -0.2 8C-4.2 8 -8.5 4 -8.5 0C-8.5 -4.1 -4.2 -8.1 -0.2 -8.1C3.9 -8.1 7.7 -4.1 7.7 0Z" fill="#fff5b2"></path></g><g transform="translate(617 1074)"><path d="M12.1 -0.2C12.1 5.6 6.1 11.1 0.1 11.1C-5.8 11.1 -11.6 5.6 -11.6 -0.2C-11.6 -5.9 -5.8 -11.8 0.1 -11.8C6.1 -11.8 12.1 -5.9 12.1 -0.2Z" fill="#fff5b2"></path></g><g transform="translate(305 741)"><path d="M14.7 0C14.7 6.5 7.3 13.1 0.1 13.1C-7.2 13.1 -14.5 6.5 -14.5 0C-14.5 -6.6 -7.2 -13.1 0.1 -13.1C7.3 -13.1 14.7 -6.6 14.7 0Z" fill="#fff5b2"></path></g><g transform="translate(139 153)"><path d="M11.1 0C11.1 5.6 5.5 11.3 0.1 11.3C-5.3 11.3 -10.6 5.6 -10.6 0C-10.6 -5.6 -5.3 -11.3 0.1 -11.3C5.5 -11.3 11.1 -5.6 11.1 0Z" fill="#fff5b2"></path></g><g transform="translate(26 626)"><path d="M6.5 0C6.5 3 3.2 6 0.1 6C-3.1 6 -6.2 3 -6.2 0C-6.2 -3 -3.1 -6 0.1 -6C3.2 -6 6.5 -3 6.5 0Z" fill="#fff5b2"></path></g><g transform="translate(1679 650)"><path d="M14.9 0.3C14.9 7.9 7.4 15.7 0.1 15.7C-7.3 15.7 -14.7 7.9 -14.7 0.3C-14.7 -7.2 -7.3 -14.5 0.1 -14.5C7.4 -14.5 14.9 -7.2 14.9 0.3Z" fill="#fff5b2"></path></g><g transform="translate(531 1078)"><path d="M9.1 0C9.1 4.1 4.5 8.2 0.1 8.2C-4.4 8.2 -8.8 4.1 -8.8 0C-8.8 -4.1 -4.4 -8.2 0.1 -8.2C4.5 -8.2 9.1 -4.1 9.1 0Z" fill="#fff5b2"></path></g><g transform="translate(1687 918)"><path d="M3.6 0C3.6 1.9 1.8 3.8 0 3.8C-1.8 3.8 -3.7 1.9 -3.7 0C-3.7 -1.9 -1.8 -3.9 0 -3.9C1.8 -3.9 3.6 -1.9 3.6 0Z" fill="#fff5b2"></path></g><g transform="translate(685 988)"><path d="M12.9 -0.3C12.9 6.4 6.5 12.9 -0.1 12.9C-6.6 12.9 -13.2 6.4 -13.2 -0.3C-13.2 -7.1 -6.6 -14.2 -0.1 -14.2C6.5 -14.2 12.9 -7.1 12.9 -0.3Z" fill="#fff5b2"></path></g><g transform="translate(1453 994)"><path d="M8 0C8 3.8 4 7.5 0 7.5C-3.9 7.5 -7.8 3.8 -7.8 0C-7.8 -3.7 -3.9 -7.3 0 -7.3C4 -7.3 8 -3.7 8 0Z" fill="#fff5b2"></path></g><g transform="translate(759 965)"><path d="M13.6 0C13.6 6.9 6.8 13.9 0 13.9C-6.8 13.9 -13.6 6.9 -13.6 0C-13.6 -7 -6.8 -14.1 0 -14.1C6.8 -14.1 13.6 -7 13.6 0Z" fill="#fff5b2"></path></g><g transform="translate(1343 624)"><path d="M12 -0.1C12 6.2 6 12.5 -0.3 12.5C-6.5 12.5 -13.1 6.2 -13.1 -0.1C-13.1 -6.5 -6.5 -13 -0.3 -13C6 -13 12 -6.5 12 -0.1Z" fill="#fff5b2"></path></g><g transform="translate(1838 822)"><path d="M2.6 0C2.6 1.2 1.3 2.4 0 2.4C-1.3 2.4 -2.5 1.2 -2.5 0C-2.5 -1.2 -1.3 -2.4 0 -2.4C1.3 -2.4 2.6 -1.2 2.6 0Z" fill="#fff5b2"></path></g><g transform="translate(1199 137)"><path d="M7.7 -0.1C7.7 3.5 3.9 7 0 7C-3.8 7 -7.7 3.5 -7.7 -0.1C-7.7 -3.7 -3.8 -7.4 0 -7.4C3.9 -7.4 7.7 -3.7 7.7 -0.1Z" fill="#fff5b2"></path></g><g transform="translate(195 783)"><path d="M14.7 0.1C14.7 7.5 7.3 14.9 -0.1 14.9C-7.5 14.9 -14.9 7.5 -14.9 0.1C-14.9 -7.2 -7.5 -14.4 -0.1 -14.4C7.3 -14.4 14.7 -7.2 14.7 0.1Z" fill="#fff5b2"></path></g><g transform="translate(1723 527)"><path d="M7 -0.1C7 3.3 3.5 6.6 0.1 6.6C-3.4 6.6 -6.7 3.3 -6.7 -0.1C-6.7 -3.5 -3.4 -6.9 0.1 -6.9C3.5 -6.9 7 -3.5 7 -0.1Z" fill="#fff5b2"></path></g><g transform="translate(1915 711)"><path d="M2 0C2 1 1 1.9 0 1.9C-1 1.9 -1.9 1 -1.9 0C-1.9 -0.9 -1 -1.9 0 -1.9C1 -1.9 2 -0.9 2 0Z" fill="#fff5b2"></path></g><g transform="translate(732 242)"><path d="M3.6 0C3.6 1.9 1.8 3.9 -0.1 3.9C-1.9 3.9 -3.9 1.9 -3.9 0C-3.9 -2 -1.9 -4 -0.1 -4C1.8 -4 3.6 -2 3.6 0Z" fill="#fff5b2"></path></g><g transform="translate(603 138)"><path d="M2.6 0C2.6 1.3 1.3 2.6 0 2.6C-1.3 2.6 -2.6 1.3 -2.6 0C-2.6 -1.3 -1.3 -2.6 0 -2.6C1.3 -2.6 2.6 -1.3 2.6 0Z" fill="#fff5b2"></path></g><g transform="translate(1091 318)"><path d="M3.3 0.1C3.3 1.6 1.6 3.3 0 3.3C-1.5 3.3 -3.1 1.6 -3.1 0.1C-3.1 -1.5 -1.5 -3.1 0 -3.1C1.6 -3.1 3.3 -1.5 3.3 0.1Z" fill="#fff5b2"></path></g><g transform="translate(1547 413)"><path d="M2.3 0C2.3 1.2 1.2 2.5 0 2.5C-1.3 2.5 -2.5 1.2 -2.5 0C-2.5 -1.2 -1.3 -2.5 0 -2.5C1.2 -2.5 2.3 -1.2 2.3 0Z" fill="#fff5b2"></path></g><g transform="translate(1048 692)"><path d="M10.7 -0.2C10.7 5.1 5.3 10.2 0 10.2C-5.3 10.2 -10.6 5.1 -10.6 -0.2C-10.6 -5.4 -5.3 -10.8 0 -10.8C5.3 -10.8 10.7 -5.4 10.7 -0.2Z" fill="#fff5b2"></path></g><g transform="translate(1211 337)"><path d="M6 -0.1C6 2.7 3 5.5 0.1 5.5C-2.7 5.5 -5.4 2.7 -5.4 -0.1C-5.4 -3 -2.7 -6 0.1 -6C3 -6 6 -3 6 -0.1Z" fill="#fff5b2"></path></g><g transform="translate(1630 834)"><path d="M7.8 0C7.8 4.1 3.9 8.2 -0.1 8.2C-4.2 8.2 -8.3 4.1 -8.3 0C-8.3 -4.1 -4.2 -8.2 -0.1 -8.2C3.9 -8.2 7.8 -4.1 7.8 0Z" fill="#fff5b2"></path></g><g transform="translate(1528 551)"><path d="M12.3 0C12.3 6.6 6.1 13.3 -0.1 13.3C-6.4 13.3 -12.7 6.6 -12.7 0C-12.7 -6.6 -6.4 -13.1 -0.1 -13.1C6.1 -13.1 12.3 -6.6 12.3 0Z" fill="#fff5b2"></path></g><g transform="translate(420 1050)"><path d="M11.2 0C11.2 5 5.6 9.9 0.2 9.9C-5.1 9.9 -10.3 5 -10.3 0C-10.3 -5.1 -5.1 -10.1 0.2 -10.1C5.6 -10.1 11.2 -5.1 11.2 0Z" fill="#fff5b2"></path></g><g transform="translate(1912 1063)"><path d="M5.4 0C5.4 2.9 2.7 5.8 -0.1 5.8C-3 5.8 -5.9 2.9 -5.9 0C-5.9 -2.8 -3 -5.7 -0.1 -5.7C2.7 -5.7 5.4 -2.8 5.4 0Z" fill="#fff5b2"></path></g><g transform="translate(1531 921)"><path d="M12.6 0.2C12.6 6.6 6.3 13.2 -0.3 13.2C-7 13.2 -13.9 6.6 -13.9 0.2C-13.9 -6.2 -7 -12.5 -0.3 -12.5C6.3 -12.5 12.6 -6.2 12.6 0.2Z" fill="#fff5b2"></path></g><g transform="translate(863 229)"><path d="M2.6 0C2.6 1.2 1.3 2.4 0.1 2.4C-1.2 2.4 -2.4 1.2 -2.4 0C-2.4 -1.2 -1.2 -2.4 0.1 -2.4C1.3 -2.4 2.6 -1.2 2.6 0Z" fill="#fff5b2"></path></g><g transform="translate(442 461)"><path d="M1.9 0C1.9 1 1 1.9 0 1.9C-1 1.9 -1.9 1 -1.9 0C-1.9 -0.9 -1 -1.9 0 -1.9C1 -1.9 1.9 -0.9 1.9 0Z" fill="#fff5b2"></path></g><g transform="translate(1801 51)"><path d="M14.6 -0.3C14.6 6.8 7.3 13.5 0.3 13.5C-6.7 13.5 -13.5 6.8 -13.5 -0.3C-13.5 -7.3 -6.7 -14.7 0.3 -14.7C7.3 -14.7 14.6 -7.3 14.6 -0.3Z" fill="#fff5b2"></path></g><g transform="translate(1023 394)"><path d="M9.9 -0.2C9.9 4.9 4.9 9.7 0 9.7C-5 9.7 -10 4.9 -10 -0.2C-10 -5.2 -5 -10.4 0 -10.4C4.9 -10.4 9.9 -5.2 9.9 -0.2Z" fill="#fff5b2"></path></g><g transform="translate(1122 216)"><path d="M13.9 0.3C13.9 6.9 6.9 13.8 0.1 13.8C-6.7 13.8 -13.4 6.9 -13.4 0.3C-13.4 -6.2 -6.7 -12.5 0.1 -12.5C6.9 -12.5 13.9 -6.2 13.9 0.3Z" fill="#fff5b2"></path></g><g transform="translate(110 1022)"><path d="M9.2 -0.2C9.2 4.4 4.6 8.9 -0.1 8.9C-4.8 8.9 -9.7 4.4 -9.7 -0.2C-9.7 -4.9 -4.8 -9.7 -0.1 -9.7C4.6 -9.7 9.2 -4.9 9.2 -0.2Z" fill="#fff5b2"></path></g><g transform="translate(662 348)"><path d="M14.8 -0.1C14.8 7.2 7.4 14.5 0.2 14.5C-7.1 14.5 -14.2 7.2 -14.2 -0.1C-14.2 -7.5 -7.1 -14.9 0.2 -14.9C7.4 -14.9 14.8 -7.5 14.8 -0.1Z" fill="#fff5b2"></path></g><g transform="translate(857 482)"><path d="M15.2 0C15.2 7.3 7.6 14.7 0.1 14.7C-7.4 14.7 -14.9 7.3 -14.9 0C-14.9 -7.3 -7.4 -14.7 0.1 -14.7C7.6 -14.7 15.2 -7.3 15.2 0Z" fill="#fff5b2"></path></g><g transform="translate(64 74)"><path d="M3.2 0C3.2 1.6 1.6 3.2 0 3.2C-1.6 3.2 -3.3 1.6 -3.3 0C-3.3 -1.5 -1.6 -3.1 0 -3.1C1.6 -3.1 3.2 -1.5 3.2 0Z" fill="#fff5b2"></path></g><g transform="translate(1916 340)"><path d="M12.6 0.1C12.6 5.7 6.3 11.4 0.2 11.4C-6 11.4 -11.9 5.7 -11.9 0.1C-11.9 -5.6 -6 -11.2 0.2 -11.2C6.3 -11.2 12.6 -5.6 12.6 0.1Z" fill="#fff5b2"></path></g><g transform="translate(1843 968)"><path d="M12 0.2C12 6 6 12 0 12C-5.9 12 -11.9 6 -11.9 0.2C-11.9 -5.6 -5.9 -11.1 0 -11.1C6 -11.1 12 -5.6 12 0.2Z" fill="#fff5b2"></path></g><g transform="translate(1674 558)"><path d="M13.7 0C13.7 6.8 6.8 13.6 0.2 13.6C-6.5 13.6 -13 6.8 -13 0C-13 -6.9 -6.5 -13.7 0.2 -13.7C6.8 -13.7 13.7 -6.9 13.7 0Z" fill="#fff5b2"></path></g><g transform="translate(933 505)"><path d="M6.2 0C6.2 3.2 3.1 6.5 -0.1 6.5C-3.2 6.5 -6.5 3.2 -6.5 0C-6.5 -3.2 -3.2 -6.5 -0.1 -6.5C3.1 -6.5 6.2 -3.2 6.2 0Z" fill="#fff5b2"></path></g><g transform="translate(45 792)"><path d="M10 0C10 4.6 5 9.1 0.2 9.1C-4.6 9.1 -9.2 4.6 -9.2 0C-9.2 -4.6 -4.6 -9.3 0.2 -9.3C5 -9.3 10 -4.6 10 0Z" fill="#fff5b2"></path></g><g transform="translate(4 235)"><path d="M10.7 0C10.7 5.5 5.4 11 0.1 11C-5.2 11 -10.3 5.5 -10.3 0C-10.3 -5.4 -5.2 -10.9 0.1 -10.9C5.4 -10.9 10.7 -5.4 10.7 0Z" fill="#fff5b2"></path></g><g transform="translate(83 847)"><path d="M12.5 0C12.5 5.8 6.2 11.7 0.1 11.7C-6 11.7 -12.1 5.8 -12.1 0C-12.1 -5.9 -6 -11.7 0.1 -11.7C6.2 -11.7 12.5 -5.9 12.5 0Z" fill="#fff5b2"></path></g><g transform="translate(712 795)"><path d="M13.7 -0.3C13.7 6.5 6.9 13.1 -0.1 13.1C-7.1 13.1 -14.2 6.5 -14.2 -0.3C-14.2 -7.2 -7.1 -14.4 -0.1 -14.4C6.9 -14.4 13.7 -7.2 13.7 -0.3Z" fill="#fff5b2"></path></g><g transform="translate(1152 1010)"><path d="M13.6 0.2C13.6 7.5 6.8 15.1 0 15.1C-6.8 15.1 -13.7 7.5 -13.7 0.2C-13.7 -7.2 -6.8 -14.3 0 -14.3C6.8 -14.3 13.6 -7.2 13.6 0.2Z" fill="#fff5b2"></path></g><g transform="translate(710 145)"><path d="M5.3 0.1C5.3 2.6 2.7 5.2 0.1 5.2C-2.4 5.2 -4.8 2.6 -4.8 0.1C-4.8 -2.4 -2.4 -4.7 0.1 -4.7C2.7 -4.7 5.3 -2.4 5.3 0.1Z" fill="#fff5b2"></path></g><g transform="translate(1707 127)"><path d="M5.3 -0.1C5.3 2.7 2.7 5.5 -0.1 5.5C-2.8 5.5 -5.6 2.7 -5.6 -0.1C-5.6 -2.9 -2.8 -5.8 -0.1 -5.8C2.7 -5.8 5.3 -2.9 5.3 -0.1Z" fill="#fff5b2"></path></g><g transform="translate(1313 193)"><path d="M7.2 -0.1C7.2 3.3 3.6 6.5 0.1 6.5C-3.5 6.5 -7 3.3 -7 -0.1C-7 -3.4 -3.5 -6.7 0.1 -6.7C3.6 -6.7 7.2 -3.4 7.2 -0.1Z" fill="#fff5b2"></path></g><g transform="translate(249 157)"><path d="M10 0C10 4.9 5 9.8 0 9.8C-4.9 9.8 -9.8 4.9 -9.8 0C-9.8 -5 -4.9 -9.9 0 -9.9C5 -9.9 10 -5 10 0Z" fill="#fff5b2"></path></g><g transform="translate(626 631)"><path d="M15.1 0.2C15.1 8 7.6 16 -0.1 16C-7.8 16 -15.7 8 -15.7 0.2C-15.7 -7.6 -7.8 -15.2 -0.1 -15.2C7.6 -15.2 15.1 -7.6 15.1 0.2Z" fill="#fff5b2"></path></g><g transform="translate(827 964)"><path d="M2 0C2 1 1 2 0 2C-0.9 2 -1.8 1 -1.8 0C-1.8 -0.9 -0.9 -1.9 0 -1.9C1 -1.9 2 -0.9 2 0Z" fill="#fff5b2"></path></g><g transform="translate(6 168)"><path d="M7.7 -0.1C7.7 3.7 3.8 7.4 0 7.4C-3.8 7.4 -7.5 3.7 -7.5 -0.1C-7.5 -3.9 -3.8 -7.7 0 -7.7C3.8 -7.7 7.7 -3.9 7.7 -0.1Z" fill="#fff5b2"></path></g><g transform="translate(881 1076)"><path d="M6.4 -0.1C6.4 3.2 3.2 6.4 0.1 6.4C-3 6.4 -5.9 3.2 -5.9 -0.1C-5.9 -3.3 -3 -6.6 0.1 -6.6C3.2 -6.6 6.4 -3.3 6.4 -0.1Z" fill="#fff5b2"></path></g><g transform="translate(515 588)"><path d="M2 0C2 0.9 1 1.9 0 1.9C-1 1.9 -2 0.9 -2 0C-2 -0.9 -1 -1.9 0 -1.9C1 -1.9 2 -0.9 2 0Z" fill="#fff5b2"></path></g><g transform="translate(1900 102)"><path d="M9.9 0C9.9 4.9 5 9.7 0 9.7C-5 9.7 -9.9 4.9 -9.9 0C-9.9 -4.8 -5 -9.6 0 -9.6C5 -9.6 9.9 -4.8 9.9 0Z" fill="#fff5b2"></path></g><g transform="translate(481 126)"><path d="M2 0C2 0.9 1 1.9 0.1 1.9C-0.9 1.9 -1.8 0.9 -1.8 0C-1.8 -0.9 -0.9 -1.9 0.1 -1.9C1 -1.9 2 -0.9 2 0Z" fill="#fff5b2"></path></g><g transform="translate(1172 734)"><path d="M4.8 0C4.8 2.4 2.4 4.9 0 4.9C-2.4 4.9 -4.9 2.4 -4.9 0C-4.9 -2.5 -2.4 -4.9 0 -4.9C2.4 -4.9 4.8 -2.5 4.8 0Z" fill="#fff5b2"></path></g><g transform="translate(1692 4)"><path d="M8.9 -0.2C8.9 4.6 4.5 9.2 -0.1 9.2C-4.6 9.2 -9.2 4.6 -9.2 -0.2C-9.2 -4.9 -4.6 -9.9 -0.1 -9.9C4.5 -9.9 8.9 -4.9 8.9 -0.2Z" fill="#fff5b2"></path></g><g transform="translate(1360 150)"><path d="M9.7 0.2C9.7 4.9 4.8 9.9 0 9.9C-4.8 9.9 -9.7 4.9 -9.7 0.2C-9.7 -4.5 -4.8 -9 0 -9C4.8 -9 9.7 -4.5 9.7 0.2Z" fill="#fff5b2"></path></g><g transform="translate(415 3)"><path d="M11.2 0.1C11.2 6 5.6 12 -0.2 12C-5.9 12 -11.8 6 -11.8 0.1C-11.8 -5.8 -5.9 -11.5 -0.2 -11.5C5.6 -11.5 11.2 -5.8 11.2 0.1Z" fill="#fff5b2"></path></g><g transform="translate(470 708)"><path d="M4.9 0C4.9 2.4 2.5 4.9 -0.1 4.9C-2.6 4.9 -5.3 2.4 -5.3 0C-5.3 -2.5 -2.6 -4.9 -0.1 -4.9C2.5 -4.9 4.9 -2.5 4.9 0Z" fill="#fff5b2"></path></g><g transform="translate(266 74)"><path d="M5.4 0C5.4 2.8 2.7 5.7 0 5.7C-2.7 5.7 -5.3 2.8 -5.3 0C-5.3 -2.8 -2.7 -5.6 0 -5.6C2.7 -5.6 5.4 -2.8 5.4 0Z" fill="#fff5b2"></path></g></g></svg>