<svg id="visual" viewBox="0 0 960 540" width="960" height="540" xmlns="http://www.w3.org/2000/svg" xmlns:xlink="http://www.w3.org/1999/xlink" version="1.1"><path d="M0 33L13.3 32.2C26.7 31.3 53.3 29.7 80 28.8C106.7 28 133.3 28 160 26.2C186.7 24.3 213.3 20.7 240 20.7C266.7 20.7 293.3 24.3 320 26.2C346.7 28 373.3 28 400 26.2C426.7 24.3 453.3 20.7 480 18.8C506.7 17 533.3 17 560 19.7C586.7 22.3 613.3 27.7 640 30.3C666.7 33 693.3 33 720 31.3C746.7 29.7 773.3 26.3 800 24.7C826.7 23 853.3 23 880 23C906.7 23 933.3 23 946.7 23L960 23L960 0L946.7 0C933.3 0 906.7 0 880 0C853.3 0 826.7 0 800 0C773.3 0 746.7 0 720 0C693.3 0 666.7 0 640 0C613.3 0 586.7 0 560 0C533.3 0 506.7 0 480 0C453.3 0 426.7 0 400 0C373.3 0 346.7 0 320 0C293.3 0 266.7 0 240 0C213.3 0 186.7 0 160 0C133.3 0 106.7 0 80 0C53.3 0 26.7 0 13.3 0L0 0Z" fill="#ffed7e"></path><path d="M0 60L13.3 60C26.7 60 53.3 60 80 59.2C106.7 58.3 133.3 56.7 160 55.8C186.7 55 213.3 55 240 55C266.7 55 293.3 55 320 55C346.7 55 373.3 55 400 53.2C426.7 51.3 453.3 47.7 480 45C506.7 42.3 533.3 40.7 560 42.5C586.7 44.3 613.3 49.7 640 53.2C666.7 56.7 693.3 58.3 720 58.3C746.7 58.3 773.3 56.7 800 55.8C826.7 55 853.3 55 880 53.2C906.7 51.3 933.3 47.7 946.7 45.8L960 44L960 21L946.7 21C933.3 21 906.7 21 880 21C853.3 21 826.7 21 800 22.7C773.3 24.3 746.7 27.7 720 29.3C693.3 31 666.7 31 640 28.3C613.3 25.7 586.7 20.3 560 17.7C533.3 15 506.7 15 480 16.8C453.3 18.7 426.7 22.3 400 24.2C373.3 26 346.7 26 320 24.2C293.3 22.3 266.7 18.7 240 18.7C213.3 18.7 186.7 22.3 160 24.2C133.3 26 106.7 26 80 26.8C53.3 27.7 26.7 29.3 13.3 30.2L0 31Z" fill="#ffe95e"></path><path d="M0 147L13.3 145.2C26.7 143.3 53.3 139.7 80 142.3C106.7 145 133.3 154 160 150.3C186.7 146.7 213.3 130.3 240 130.3C266.7 130.3 293.3 146.7 320 152.2C346.7 157.7 373.3 152.3 400 144.2C426.7 136 453.3 125 480 134.8C506.7 144.7 533.3 175.3 560 187.2C586.7 199 613.3 192 640 182.2C666.7 172.3 693.3 159.7 720 152.3C746.7 145 773.3 143 800 147.5C826.7 152 853.3 163 880 166.7C906.7 170.3 933.3 166.7 946.7 164.8L960 163L960 42L946.7 43.8C933.3 45.7 906.7 49.3 880 51.2C853.3 53 826.7 53 800 53.8C773.3 54.7 746.7 56.3 720 56.3C693.3 56.3 666.7 54.7 640 51.2C613.3 47.7 586.7 42.3 560 40.5C533.3 38.7 506.7 40.3 480 43C453.3 45.7 426.7 49.3 400 51.2C373.3 53 346.7 53 320 53C293.3 53 266.7 53 240 53C213.3 53 186.7 53 160 53.8C133.3 54.7 106.7 56.3 80 57.2C53.3 58 26.7 58 13.3 58L0 58Z" fill="#ffe437"></path><path d="M0 228L13.3 225.3C26.7 222.7 53.3 217.3 80 214.7C106.7 212 133.3 212 160 208.3C186.7 204.7 213.3 197.3 240 198.2C266.7 199 293.3 208 320 214.3C346.7 220.7 373.3 224.3 400 218C426.7 211.7 453.3 195.3 480 199.8C506.7 204.3 533.3 229.7 560 238.7C586.7 247.7 613.3 240.3 640 234.8C666.7 229.3 693.3 225.7 720 220.3C746.7 215 773.3 208 800 212.5C826.7 217 853.3 233 880 241C906.7 249 933.3 249 946.7 249L960 249L960 161L946.7 162.8C933.3 164.7 906.7 168.3 880 164.7C853.3 161 826.7 150 800 145.5C773.3 141 746.7 143 720 150.3C693.3 157.7 666.7 170.3 640 180.2C613.3 190 586.7 197 560 185.2C533.3 173.3 506.7 142.7 480 132.8C453.3 123 426.7 134 400 142.2C373.3 150.3 346.7 155.7 320 150.2C293.3 144.7 266.7 128.3 240 128.3C213.3 128.3 186.7 144.7 160 148.3C133.3 152 106.7 143 80 140.3C53.3 137.7 26.7 141.3 13.3 143.2L0 145Z" fill="#dfc72c"></path><path d="M0 244L13.3 241.3C26.7 238.7 53.3 233.3 80 232.5C106.7 231.7 133.3 235.3 160 234.3C186.7 233.3 213.3 227.7 240 228.5C266.7 229.3 293.3 236.7 320 240.3C346.7 244 373.3 244 400 237.7C426.7 231.3 453.3 218.7 480 223.2C506.7 227.7 533.3 249.3 560 259.3C586.7 269.3 613.3 267.7 640 263.2C666.7 258.7 693.3 251.3 720 245C746.7 238.7 773.3 233.3 800 237.8C826.7 242.3 853.3 256.7 880 264.7C906.7 272.7 933.3 274.3 946.7 275.2L960 276L960 247L946.7 247C933.3 247 906.7 247 880 239C853.3 231 826.7 215 800 210.5C773.3 206 746.7 213 720 218.3C693.3 223.7 666.7 227.3 640 232.8C613.3 238.3 586.7 245.7 560 236.7C533.3 227.7 506.7 202.3 480 197.8C453.3 193.3 426.7 209.7 400 216C373.3 222.3 346.7 218.7 320 212.3C293.3 206 266.7 197 240 196.2C213.3 195.3 186.7 202.7 160 206.3C133.3 210 106.7 210 80 212.7C53.3 215.3 26.7 220.7 13.3 223.3L0 226Z" fill="#c0ab22"></path><path d="M0 271L13.3 268.3C26.7 265.7 53.3 260.3 80 262.2C106.7 264 133.3 273 160 273C186.7 273 213.3 264 240 262.2C266.7 260.3 293.3 265.7 320 267.5C346.7 269.3 373.3 267.7 400 265.8C426.7 264 453.3 262 480 271.8C506.7 281.7 533.3 303.3 560 312.3C586.7 321.3 613.3 317.7 640 307.8C666.7 298 693.3 282 720 274.8C746.7 267.7 773.3 269.3 800 274.7C826.7 280 853.3 289 880 293.5C906.7 298 933.3 298 946.7 298L960 298L960 274L946.7 273.2C933.3 272.3 906.7 270.7 880 262.7C853.3 254.7 826.7 240.3 800 235.8C773.3 231.3 746.7 236.7 720 243C693.3 249.3 666.7 256.7 640 261.2C613.3 265.7 586.7 267.3 560 257.3C533.3 247.3 506.7 225.7 480 221.2C453.3 216.7 426.7 229.3 400 235.7C373.3 242 346.7 242 320 238.3C293.3 234.7 266.7 227.3 240 226.5C213.3 225.7 186.7 231.3 160 232.3C133.3 233.3 106.7 229.7 80 230.5C53.3 231.3 26.7 236.7 13.3 239.3L0 242Z" fill="#c0ab22"></path><path d="M0 309L13.3 311.7C26.7 314.3 53.3 319.7 80 320.5C106.7 321.3 133.3 317.7 160 315.8C186.7 314 213.3 314 240 313.2C266.7 312.3 293.3 310.7 320 309.8C346.7 309 373.3 309 400 310.8C426.7 312.7 453.3 316.3 480 328.8C506.7 341.3 533.3 362.7 560 367.2C586.7 371.7 613.3 359.3 640 348.7C666.7 338 693.3 329 720 322.7C746.7 316.3 773.3 312.7 800 315.3C826.7 318 853.3 327 880 331.5C906.7 336 933.3 336 946.7 336L960 336L960 296L946.7 296C933.3 296 906.7 296 880 291.5C853.3 287 826.7 278 800 272.7C773.3 267.3 746.7 265.7 720 272.8C693.3 280 666.7 296 640 305.8C613.3 315.7 586.7 319.3 560 310.3C533.3 301.3 506.7 279.7 480 269.8C453.3 260 426.7 262 400 263.8C373.3 265.7 346.7 267.3 320 265.5C293.3 263.7 266.7 258.3 240 260.2C213.3 262 186.7 271 160 271C133.3 271 106.7 262 80 260.2C53.3 258.3 26.7 263.7 13.3 266.3L0 269Z" fill="#c0ab22"></path><path d="M0 449L13.3 447.2C26.7 445.3 53.3 441.7 80 440.8C106.7 440 133.3 442 160 446.5C186.7 451 213.3 458 240 456.2C266.7 454.3 293.3 443.7 320 442C346.7 440.3 373.3 447.7 400 452.2C426.7 456.7 453.3 458.3 480 460C506.7 461.7 533.3 463.3 560 459.7C586.7 456 613.3 447 640 442.5C666.7 438 693.3 438 720 440.8C746.7 443.7 773.3 449.3 800 451.2C826.7 453 853.3 451 880 446.5C906.7 442 933.3 435 946.7 431.5L960 428L960 334L946.7 334C933.3 334 906.7 334 880 329.5C853.3 325 826.7 316 800 313.3C773.3 310.7 746.7 314.3 720 320.7C693.3 327 666.7 336 640 346.7C613.3 357.3 586.7 369.7 560 365.2C533.3 360.7 506.7 339.3 480 326.8C453.3 314.3 426.7 310.7 400 308.8C373.3 307 346.7 307 320 307.8C293.3 308.7 266.7 310.3 240 311.2C213.3 312 186.7 312 160 313.8C133.3 315.7 106.7 319.3 80 318.5C53.3 317.7 26.7 312.3 13.3 309.7L0 307Z" fill="#dfc72c"></path><path d="M0 471L13.3 470C26.7 469 53.3 467 80 467.8C106.7 468.7 133.3 472.3 160 476C186.7 479.7 213.3 483.3 240 480.7C266.7 478 293.3 469 320 466.3C346.7 463.7 373.3 467.3 400 470C426.7 472.7 453.3 474.3 480 477.8C506.7 481.3 533.3 486.7 560 485.8C586.7 485 613.3 478 640 474.5C666.7 471 693.3 471 720 473.7C746.7 476.3 773.3 481.7 800 483.5C826.7 485.3 853.3 483.7 880 480C906.7 476.3 933.3 470.7 946.7 467.8L960 465L960 426L946.7 429.5C933.3 433 906.7 440 880 444.5C853.3 449 826.7 451 800 449.2C773.3 447.3 746.7 441.7 720 438.8C693.3 436 666.7 436 640 440.5C613.3 445 586.7 454 560 457.7C533.3 461.3 506.7 459.7 480 458C453.3 456.3 426.7 454.7 400 450.2C373.3 445.7 346.7 438.3 320 440C293.3 441.7 266.7 452.3 240 454.2C213.3 456 186.7 449 160 444.5C133.3 440 106.7 438 80 438.8C53.3 439.7 26.7 443.3 13.3 445.2L0 447Z" fill="#ffe437"></path><path d="M0 503L13.3 503C26.7 503 53.3 503 80 501.2C106.7 499.3 133.3 495.7 160 497.5C186.7 499.3 213.3 506.7 240 506.7C266.7 506.7 293.3 499.3 320 496.7C346.7 494 373.3 496 400 497.8C426.7 499.7 453.3 501.3 480 504C506.7 506.7 533.3 510.3 560 508.5C586.7 506.7 613.3 499.3 640 494.8C666.7 490.3 693.3 488.7 720 492.3C746.7 496 773.3 505 800 508.7C826.7 512.3 853.3 510.7 880 505.3C906.7 500 933.3 491 946.7 486.5L960 482L960 463L946.7 465.8C933.3 468.7 906.7 474.3 880 478C853.3 481.7 826.7 483.3 800 481.5C773.3 479.7 746.7 474.3 720 471.7C693.3 469 666.7 469 640 472.5C613.3 476 586.7 483 560 483.8C533.3 484.7 506.7 479.3 480 475.8C453.3 472.3 426.7 470.7 400 468C373.3 465.3 346.7 461.7 320 464.3C293.3 467 266.7 476 240 478.7C213.3 481.3 186.7 477.7 160 474C133.3 470.3 106.7 466.7 80 465.8C53.3 465 26.7 467 13.3 468L0 469Z" fill="#ffe95e"></path><path d="M0 541L13.3 541C26.7 541 53.3 541 80 541C106.7 541 133.3 541 160 541C186.7 541 213.3 541 240 541C266.7 541 293.3 541 320 541C346.7 541 373.3 541 400 541C426.7 541 453.3 541 480 541C506.7 541 533.3 541 560 541C586.7 541 613.3 541 640 541C666.7 541 693.3 541 720 541C746.7 541 773.3 541 800 541C826.7 541 853.3 541 880 541C906.7 541 933.3 541 946.7 541L960 541L960 480L946.7 484.5C933.3 489 906.7 498 880 503.3C853.3 508.7 826.7 510.3 800 506.7C773.3 503 746.7 494 720 490.3C693.3 486.7 666.7 488.3 640 492.8C613.3 497.3 586.7 504.7 560 506.5C533.3 508.3 506.7 504.7 480 502C453.3 499.3 426.7 497.7 400 495.8C373.3 494 346.7 492 320 494.7C293.3 497.3 266.7 504.7 240 504.7C213.3 504.7 186.7 497.3 160 495.5C133.3 493.7 106.7 497.3 80 499.2C53.3 501 26.7 501 13.3 501L0 501Z" fill="#ffed7e"></path></svg>